<svg width="11" height="10" viewBox="0 0 11 10" fill="none" xmlns="http://www.w3.org/2000/svg">
<path d="M11 4.28571H9.53333V2.85714H8.8V4.28571H7.33333V5H8.8V6.42857H9.53333V5H11V4.28571ZM3.66667 0.714286C4.02927 0.714286 4.38372 0.819016 4.68521 1.01523C4.9867 1.21145 5.22169 1.49034 5.36045 1.81664C5.49921 2.14293 5.53551 2.50198 5.46477 2.84838C5.39403 3.19477 5.21943 3.51295 4.96303 3.76269C4.70663 4.01243 4.37996 4.1825 4.02433 4.2514C3.6687 4.3203 3.30008 4.28494 2.96508 4.14979C2.63008 4.01463 2.34376 3.78575 2.14231 3.49209C1.94086 3.19843 1.83333 2.85318 1.83333 2.5C1.83333 2.0264 2.02649 1.5722 2.3703 1.23731C2.71412 0.902423 3.18044 0.714286 3.66667 0.714286ZM3.66667 0C3.15903 0 2.66279 0.146622 2.2407 0.421326C1.81862 0.69603 1.48964 1.08648 1.29538 1.54329C1.10111 2.00011 1.05028 2.50277 1.14932 2.98773C1.24835 3.47268 1.4928 3.91814 1.85176 4.26777C2.21071 4.6174 2.66805 4.8555 3.16594 4.95196C3.66382 5.04843 4.17989 4.99892 4.64889 4.8097C5.11788 4.62048 5.51874 4.30005 5.80077 3.88893C6.0828 3.4778 6.23333 2.99445 6.23333 2.5C6.23333 1.83696 5.96292 1.20107 5.48157 0.732233C5.00023 0.263392 4.34739 0 3.66667 0ZM7.33333 10H6.6V8.21429C6.6 7.74068 6.40685 7.28648 6.06303 6.9516C5.71921 6.61671 5.2529 6.42857 4.76667 6.42857H2.56667C2.08044 6.42857 1.61412 6.61671 1.2703 6.9516C0.926488 7.28648 0.733333 7.74068 0.733333 8.21429V10H0V8.21429C0 7.55124 0.270416 6.91536 0.751759 6.44652C1.2331 5.97768 1.88594 5.71429 2.56667 5.71429H4.76667C5.44739 5.71429 6.10023 5.97768 6.58157 6.44652C7.06292 6.91536 7.33333 7.55124 7.33333 8.21429V10Z" fill="white"/>
</svg>
