<svg width="23" height="23" viewBox="0 0 23 23" fill="none" xmlns="http://www.w3.org/2000/svg">
<path d="M12.5452 7.31822C12.5452 6.74084 12.0772 6.27277 11.4998 6.27277C10.9224 6.27277 10.4543 6.74083 10.4543 7.31822V10.4546H7.31796C6.74056 10.4546 6.27251 10.9226 6.27251 11.5C6.27251 12.0774 6.74056 12.5455 7.31796 12.5455H10.4543V15.6819C10.4543 16.2593 10.9224 16.7273 11.4998 16.7273C12.0772 16.7273 12.5452 16.2593 12.5452 15.6819V12.5455H15.6816C16.259 12.5455 16.7271 12.0774 16.7271 11.5C16.7271 10.9226 16.259 10.4546 15.6816 10.4546H12.5452V7.31822Z" fill="#00CCFF"/>
<path fill-rule="evenodd" clip-rule="evenodd" d="M0 3.13636C0 1.4042 1.40415 0 3.13636 0H19.8636C21.5958 0 23 1.4042 23 3.13636V19.8636C23 21.5958 21.5958 23 19.8636 23H3.13636C1.40415 23 0 21.5958 0 19.8636V3.13636ZM2.09091 3.13636C2.09091 2.55898 2.55896 2.09091 3.13636 2.09091H19.8636C20.441 2.09091 20.9091 2.55898 20.9091 3.13636V19.8636C20.9091 20.441 20.441 20.9091 19.8636 20.9091H3.13636C2.55896 20.9091 2.09091 20.441 2.09091 19.8636V3.13636Z" fill="#00CCFF"/>
</svg>
