<svg width="35" height="35" viewBox="0 0 35 35" fill="none" xmlns="http://www.w3.org/2000/svg">
<g filter="url(#filter0_dd_158_570)">
<path d="M4 22.95C4 25.245 5.755 27 8.05 27H26.95C29.245 27 31 25.245 31 22.95V12.15H4V22.95ZM26.95 2.7H24.25V1.35C24.25 0.54 23.71 0 22.9 0C22.09 0 21.55 0.54 21.55 1.35V2.7H13.45V1.35C13.45 0.54 12.91 0 12.1 0C11.29 0 10.75 0.54 10.75 1.35V2.7H8.05C5.755 2.7 4 4.455 4 6.75V9.45H31V6.75C31 4.455 29.245 2.7 26.95 2.7Z" fill="white"/>
</g>
<defs>
<filter id="filter0_dd_158_570" x="0" y="0" width="35" height="35" filterUnits="userSpaceOnUse" color-interpolation-filters="sRGB">
<feFlood flood-opacity="0" result="BackgroundImageFix"/>
<feColorMatrix in="SourceAlpha" type="matrix" values="0 0 0 0 0 0 0 0 0 0 0 0 0 0 0 0 0 0 127 0" result="hardAlpha"/>
<feOffset dy="4"/>
<feGaussianBlur stdDeviation="2"/>
<feComposite in2="hardAlpha" operator="out"/>
<feColorMatrix type="matrix" values="0 0 0 0 0 0 0 0 0 0 0 0 0 0 0 0 0 0 0.25 0"/>
<feBlend mode="normal" in2="BackgroundImageFix" result="effect1_dropShadow_158_570"/>
<feColorMatrix in="SourceAlpha" type="matrix" values="0 0 0 0 0 0 0 0 0 0 0 0 0 0 0 0 0 0 127 0" result="hardAlpha"/>
<feOffset dy="4"/>
<feGaussianBlur stdDeviation="2"/>
<feComposite in2="hardAlpha" operator="out"/>
<feColorMatrix type="matrix" values="0 0 0 0 0 0 0 0 0 0 0 0 0 0 0 0 0 0 0.25 0"/>
<feBlend mode="normal" in2="effect1_dropShadow_158_570" result="effect2_dropShadow_158_570"/>
<feBlend mode="normal" in="SourceGraphic" in2="effect2_dropShadow_158_570" result="shape"/>
</filter>
</defs>
</svg>
