<svg width="48" height="48" viewBox="0 0 48 48" fill="none" xmlns="http://www.w3.org/2000/svg">
<circle cx="24" cy="24" r="24" fill="#2F579A"/>
<path d="M24.0001 42.3333C26.4081 42.3365 28.793 41.8637 31.0177 40.9421C33.2425 40.0206 35.2631 38.6685 36.9636 36.9635C38.6686 35.263 40.0207 33.2424 40.9422 31.0176C41.8638 28.7929 42.3365 26.408 42.3334 24C42.3365 21.592 41.8637 19.2071 40.9421 16.9824C40.0206 14.7577 38.6685 12.737 36.9636 11.0365C35.2631 9.33153 33.2425 7.97942 31.0177 7.05788C28.793 6.13635 26.4081 5.66355 24.0001 5.66667C21.5921 5.6636 19.2072 6.13642 16.9825 7.05795C14.7578 7.97949 12.7371 9.33157 11.0366 11.0365C9.33166 12.737 7.97958 14.7577 7.05805 16.9824C6.13651 19.2071 5.66369 21.592 5.66676 24C5.66364 26.408 6.13644 28.7929 7.05798 31.0176C7.97951 33.2424 9.33162 35.263 11.0366 36.9635C12.7371 38.6684 14.7578 40.0205 16.9825 40.9421C19.2072 41.8636 21.5921 42.3364 24.0001 42.3333Z" stroke="#00CCFF" stroke-width="4" stroke-linejoin="round"/>
<path fill-rule="evenodd" clip-rule="evenodd" d="M24.0002 35.9167C24.608 35.9167 25.1908 35.6752 25.6206 35.2455C26.0504 34.8157 26.2918 34.2328 26.2918 33.625C26.2918 33.0172 26.0504 32.4343 25.6206 32.0046C25.1908 31.5748 24.608 31.3333 24.0002 31.3333C23.3924 31.3333 22.8095 31.5748 22.3797 32.0046C21.9499 32.4343 21.7085 33.0172 21.7085 33.625C21.7085 34.2328 21.9499 34.8157 22.3797 35.2455C22.8095 35.6752 23.3924 35.9167 24.0002 35.9167Z" fill="#00CCFF"/>
<path d="M24 13V27.6667" stroke="#00CCFF" stroke-width="4" stroke-linecap="round" stroke-linejoin="round"/>
</svg>
