<svg width="36" height="39" viewBox="0 0 36 39" fill="none" xmlns="http://www.w3.org/2000/svg">
<g filter="url(#filter0_dd_442_1766)">
<path fill-rule="evenodd" clip-rule="evenodd" d="M25.4377 6.375H10.5627C9.71737 6.375 8.90661 6.71082 8.30884 7.3086C7.71107 7.90637 7.37524 8.71712 7.37524 9.5625V24.4375C7.37524 25.2829 7.71107 26.0936 8.30884 26.6914C8.90661 27.2892 9.71737 27.625 10.5627 27.625H25.4377C26.2831 27.625 27.0939 27.2892 27.6916 26.6914C28.2894 26.0936 28.6252 25.2829 28.6252 24.4375V9.5625C28.6252 8.71712 28.2894 7.90637 27.6916 7.3086C27.0939 6.71082 26.2831 6.375 25.4377 6.375ZM10.5627 3.1875C8.87199 3.1875 7.25048 3.85915 6.05494 5.05469C4.85939 6.25024 4.18774 7.87175 4.18774 9.5625V24.4375C4.18774 26.1283 4.85939 27.7498 6.05494 28.9453C7.25048 30.1409 8.87199 30.8125 10.5627 30.8125H25.4377C27.1285 30.8125 28.75 30.1409 29.9456 28.9453C31.1411 27.7498 31.8127 26.1283 31.8127 24.4375V9.5625C31.8127 7.87175 31.1411 6.25024 29.9456 5.05469C28.75 3.85915 27.1285 3.1875 25.4377 3.1875H10.5627ZM23.3127 15.9375H12.539C11.9754 15.9375 11.4349 16.1614 11.0364 16.5599C10.6379 16.9584 10.414 17.4989 10.414 18.0625V22.3125C10.414 22.8761 10.6379 23.4166 11.0364 23.8151C11.4349 24.2136 11.9754 24.4375 12.539 24.4375H23.3127C23.8763 24.4375 24.4168 24.2136 24.8153 23.8151C25.2139 23.4166 25.4377 22.8761 25.4377 22.3125V18.0625C25.4377 17.4989 25.2139 16.9584 24.8153 16.5599C24.4168 16.1614 23.8763 15.9375 23.3127 15.9375ZM12.0077 9.5625H19.594C20.0167 9.5625 20.4221 9.73041 20.7209 10.0293C21.0198 10.3282 21.1877 10.7336 21.1877 11.1562C21.1877 11.5789 21.0198 11.9843 20.7209 12.2832C20.4221 12.5821 20.0167 12.75 19.594 12.75H12.0077C11.5851 12.75 11.1797 12.5821 10.8808 12.2832C10.5819 11.9843 10.414 11.5789 10.414 11.1562C10.414 10.7336 10.5819 10.3282 10.8808 10.0293C11.1797 9.73041 11.5851 9.5625 12.0077 9.5625Z" fill="white"/>
</g>
<defs>
<filter id="filter0_dd_442_1766" x="-2.99976" y="0" width="42" height="42" filterUnits="userSpaceOnUse" color-interpolation-filters="sRGB">
<feFlood flood-opacity="0" result="BackgroundImageFix"/>
<feColorMatrix in="SourceAlpha" type="matrix" values="0 0 0 0 0 0 0 0 0 0 0 0 0 0 0 0 0 0 127 0" result="hardAlpha"/>
<feOffset dy="4"/>
<feGaussianBlur stdDeviation="2"/>
<feComposite in2="hardAlpha" operator="out"/>
<feColorMatrix type="matrix" values="0 0 0 0 0 0 0 0 0 0 0 0 0 0 0 0 0 0 0.25 0"/>
<feBlend mode="normal" in2="BackgroundImageFix" result="effect1_dropShadow_442_1766"/>
<feColorMatrix in="SourceAlpha" type="matrix" values="0 0 0 0 0 0 0 0 0 0 0 0 0 0 0 0 0 0 127 0" result="hardAlpha"/>
<feOffset dy="4"/>
<feGaussianBlur stdDeviation="2"/>
<feComposite in2="hardAlpha" operator="out"/>
<feColorMatrix type="matrix" values="0 0 0 0 0 0 0 0 0 0 0 0 0 0 0 0 0 0 0.25 0"/>
<feBlend mode="normal" in2="effect1_dropShadow_442_1766" result="effect2_dropShadow_442_1766"/>
<feBlend mode="normal" in="SourceGraphic" in2="effect2_dropShadow_442_1766" result="shape"/>
</filter>
</defs>
</svg>
