<svg width="10" height="12" viewBox="0 0 10 12" fill="none" xmlns="http://www.w3.org/2000/svg">
<path d="M3.8235 5.12484L4.8708 4.2286C5.15716 3.98306 5.35843 3.66319 5.44878 3.31004C5.53913 2.9569 5.51444 2.58659 5.37787 2.24665L4.93126 1.13272C4.7644 0.716852 4.43408 0.376051 4.00758 0.179745C3.58108 -0.016562 3.0905 -0.0536045 2.63579 0.0761637C0.962453 0.554345 -0.323751 2.0071 0.0721543 3.7322C0.332515 4.86708 0.83081 6.29161 1.77474 7.80721C2.72062 9.32646 3.80107 10.4486 4.72745 11.2374C6.1258 12.426 8.12482 12.1291 9.41103 11.0087C9.75581 10.7085 9.96501 10.2967 9.99599 9.85736C10.027 9.41801 9.87741 8.98417 9.57778 8.64426L8.75866 7.71522C8.51162 7.43428 8.18022 7.22881 7.80711 7.12525C7.43401 7.02169 7.03626 7.02478 6.66505 7.13412L5.31156 7.53214C4.96202 7.19521 4.65571 6.82138 4.39883 6.41821C4.15089 6.01049 3.95765 5.57579 3.8235 5.12393" fill="#00CCFF"/>
</svg>
