<svg width="11" height="23" viewBox="0 0 11 23" fill="none" xmlns="http://www.w3.org/2000/svg">
<path d="M9.16876 22.2917C8.9509 22.2924 8.73563 22.2416 8.53879 22.1429C8.34194 22.0442 8.16852 21.9001 8.03126 21.7212L0.987515 12.4712C0.773021 12.1954 0.655762 11.8494 0.655762 11.4923C0.655762 11.1352 0.773021 10.7892 0.987515 10.5133L8.27918 1.26332C8.52672 0.948487 8.88242 0.750499 9.26804 0.712914C9.65366 0.675329 10.0376 0.801224 10.3354 1.0629C10.6332 1.32458 10.8205 1.70061 10.8561 2.10827C10.8916 2.51593 10.7725 2.92182 10.525 3.23665L4.00626 11.5L10.3063 19.7633C10.4846 19.9896 10.5979 20.2652 10.6327 20.5574C10.6675 20.8496 10.6224 21.1463 10.5028 21.4123C10.3831 21.6782 10.1939 21.9024 9.95746 22.0583C9.72105 22.2141 9.44736 22.2951 9.16876 22.2917Z" fill="#00CCFF"/>
</svg>
