<svg width="31" height="39" viewBox="0 0 31 39" fill="none" xmlns="http://www.w3.org/2000/svg">
<path d="M15.201 13.3821L12.0309 16.2264C12.447 17.6618 13.0326 19.0426 13.775 20.3396C14.5478 21.6277 15.4775 22.8149 16.5427 23.8739L20.6482 22.6089C22.9482 21.8998 25.459 22.6281 26.9886 24.4489L29.3269 27.2319C30.2736 28.3492 30.7482 29.7911 30.6502 31.2522C30.5522 32.7133 29.8892 34.0789 28.8017 35.0596C24.9875 38.5403 19.1149 39.7171 14.718 36.2633C10.8538 33.2206 7.58414 29.4909 5.07338 25.2616C2.55711 21.0522 0.873134 16.3985 0.113047 11.5536C-0.730287 6.1026 3.26021 1.74027 8.23588 0.252938C11.2029 -0.636395 14.3692 0.889271 15.4579 3.7336L16.742 7.08777C17.5854 9.29577 16.9797 11.7874 15.201 13.3821Z" fill="#F24E1E"/>
</svg>
