<svg width="19" height="17" viewBox="0 0 19 17" fill="none" xmlns="http://www.w3.org/2000/svg">
<path d="M9.5 11.6667C10.8117 11.6667 11.875 10.6034 11.875 9.29175C11.875 7.98007 10.8117 6.91675 9.5 6.91675C8.18832 6.91675 7.125 7.98007 7.125 9.29175C7.125 10.6034 8.18832 11.6667 9.5 11.6667Z" stroke="#00CCFF" stroke-width="1.5"/>
<path d="M7.74096 15.625H11.2591C13.7299 15.625 14.9657 15.625 15.8532 15.0432C16.2361 14.7922 16.5659 14.4683 16.8237 14.09C17.4167 13.2192 17.4167 12.0055 17.4167 9.57987C17.4167 7.15341 17.4167 5.94058 16.8237 5.06975C16.5659 4.69142 16.2361 4.36754 15.8532 4.11658C15.2832 3.74212 14.5691 3.60833 13.4758 3.56083C12.9541 3.56083 12.5052 3.17291 12.4031 2.6702C12.325 2.30197 12.1223 1.97198 11.829 1.736C11.5358 1.50001 11.17 1.37251 10.7936 1.37504H8.20646C7.42429 1.37504 6.75058 1.91733 6.597 2.6702C6.49487 3.17291 6.046 3.56083 5.52429 3.56083C4.43179 3.60833 3.71771 3.74291 3.14692 4.11658C2.76424 4.36759 2.43471 4.69147 2.17712 5.06975C1.58337 5.94058 1.58337 7.15341 1.58337 9.57987C1.58337 12.0055 1.58337 13.2184 2.17633 14.09C2.43283 14.4668 2.76217 14.7906 3.14692 15.0432C4.03437 15.625 5.27017 15.625 7.74096 15.625Z" stroke="#00CCFF" stroke-width="1.5"/>
<path d="M15.0417 6.91675H14.25" stroke="#00CCFF" stroke-width="1.5" stroke-linecap="round"/>
</svg>
