<svg width="53" height="53" viewBox="0 0 53 53" fill="none" xmlns="http://www.w3.org/2000/svg">
<circle cx="26.5" cy="26.5" r="26.5" fill="#00CCFF" fill-opacity="0.11"/>
<g clip-path="url(#clip0_630_1306)">
<path d="M26.5 41.4643V45.8929M32.0357 39.25V43.6786M20.9643 39.25V43.6786M38.6785 17.1071H14.3214C13.7341 17.1071 13.1709 17.3404 12.7557 17.7557C12.3404 18.171 12.1071 18.7342 12.1071 19.3214V32.6071C12.1071 33.1944 12.3404 33.7576 12.7557 34.1729C13.1709 34.5881 13.7341 34.8214 14.3214 34.8214H38.6785C39.2658 34.8214 39.829 34.5881 40.2443 34.1729C40.6595 33.7576 40.8928 33.1944 40.8928 32.6071V19.3214C40.8928 18.7342 40.6595 18.171 40.2443 17.7557C39.829 17.3404 39.2658 17.1071 38.6785 17.1071Z" stroke="#00CCFF" stroke-width="2" stroke-linecap="round" stroke-linejoin="round"/>
<path d="M26.5 29.8393C27.0089 29.8393 27.5128 29.7391 27.9829 29.5443C28.453 29.3496 28.8802 29.0642 29.24 28.7043C29.5999 28.3445 29.8853 27.9173 30.08 27.4472C30.2748 26.9771 30.375 26.4732 30.375 25.9643C30.375 25.4554 30.2748 24.9515 30.08 24.4814C29.8853 24.0113 29.5999 23.5841 29.24 23.2243C28.8802 22.8644 28.453 22.579 27.9829 22.3843C27.5128 22.1895 27.0089 22.0893 26.5 22.0893C25.4723 22.0893 24.4867 22.4976 23.76 23.2243C23.0333 23.951 22.625 24.9366 22.625 25.9643C22.625 26.992 23.0333 27.9776 23.76 28.7043C24.4867 29.431 25.4723 29.8393 26.5 29.8393ZM17.1446 26.5179C16.9978 26.5179 16.857 26.4595 16.7532 26.3557C16.6494 26.2519 16.5911 26.1111 16.5911 25.9643C16.5911 25.8175 16.6494 25.6767 16.7532 25.5729C16.857 25.469 16.9978 25.4107 17.1446 25.4107M17.1446 26.5179C17.2915 26.5179 17.4323 26.4595 17.5361 26.3557C17.6399 26.2519 17.6982 26.1111 17.6982 25.9643C17.6982 25.8175 17.6399 25.6767 17.5361 25.5729C17.4323 25.469 17.2915 25.4107 17.1446 25.4107M35.8554 26.5179C35.7085 26.5179 35.5677 26.4595 35.4639 26.3557C35.3601 26.2519 35.3018 26.1111 35.3018 25.9643C35.3018 25.8175 35.3601 25.6767 35.4639 25.5729C35.5677 25.469 35.7085 25.4107 35.8554 25.4107M35.8554 26.5179C36.0022 26.5179 36.143 26.4595 36.2468 26.3557C36.3506 26.2519 36.4089 26.1111 36.4089 25.9643C36.4089 25.8175 36.3506 25.6767 36.2468 25.5729C36.143 25.469 36.0022 25.4107 35.8554 25.4107" stroke="#00CCFF" stroke-width="2" stroke-linecap="round" stroke-linejoin="round"/>
</g>
<defs>
<clipPath id="clip0_630_1306">
<rect width="31" height="31" fill="white" transform="translate(11 16)"/>
</clipPath>
</defs>
</svg>
