<svg width="15" height="15" viewBox="0 0 15 15" fill="none" xmlns="http://www.w3.org/2000/svg">
<path d="M14.4161 4.78751C14.0397 3.95083 13.4922 3.19035 12.8039 2.54845C12.1177 1.90543 11.3026 1.39419 10.4049 1.04376C9.48523 0.683032 8.49711 0.498121 7.49922 0.500014H7.46566C6.45069 0.504702 5.46927 0.692202 4.54488 1.06095C3.65485 1.41497 2.8474 1.92712 2.16766 2.56876C1.48609 3.20922 0.944783 3.96704 0.573903 4.80001C0.188909 5.6662 -0.00616922 6.59536 0.000148692 7.53282C0.00518162 8.61719 0.28367 9.69376 0.80374 10.6563V13.0313C0.80374 13.4281 1.14933 13.75 1.57378 13.75H4.12044C5.15869 14.2379 6.30441 14.4947 7.46734 14.5H7.50257C8.5058 14.5 9.47716 14.3188 10.3932 13.9641C11.2863 13.6178 12.0984 13.1125 12.7838 12.4766C13.475 11.8375 14.0185 11.0906 14.3994 10.2578C14.7936 9.39532 14.9949 8.47813 15 7.53126C15.0033 6.5797 14.8054 5.65626 14.4161 4.78751ZM4.15064 8.25001C3.70774 8.25001 3.34705 7.91407 3.34705 7.50001C3.34705 7.08595 3.70774 6.75001 4.15064 6.75001C4.59354 6.75001 4.95423 7.08595 4.95423 7.50001C4.95423 7.91407 4.59521 8.25001 4.15064 8.25001ZM7.49922 8.25001C7.05632 8.25001 6.69562 7.91407 6.69562 7.50001C6.69562 7.08595 7.05632 6.75001 7.49922 6.75001C7.94211 6.75001 8.30281 7.08595 8.30281 7.50001C8.30281 7.91407 7.94211 8.25001 7.49922 8.25001ZM10.8478 8.25001C10.4049 8.25001 10.0442 7.91407 10.0442 7.50001C10.0442 7.08595 10.4049 6.75001 10.8478 6.75001C11.2907 6.75001 11.6514 7.08595 11.6514 7.50001C11.6514 7.91407 11.2907 8.25001 10.8478 8.25001Z" fill="#00CCFF"/>
</svg>
