<svg width="53" height="53" viewBox="0 0 53 53" fill="none" xmlns="http://www.w3.org/2000/svg">
<circle cx="26.5" cy="26.5" r="26.5" fill="#00CCFF" fill-opacity="0.11"/>
<path d="M45 20.025C45 26.6665 39.6165 32.05 32.975 32.05C32.6605 32.05 32.3275 32.0315 32.013 32.013C31.5505 26.1485 26.8515 21.4495 20.987 20.987C20.9685 20.6725 20.95 20.3395 20.95 20.025C20.95 13.3835 26.3335 8 32.975 8C39.6165 8 45 13.3835 45 20.025Z" fill="#FFAD0A"/>
<path opacity="0.4" d="M32.05 32.9749C32.05 39.6164 26.6665 44.9999 20.025 44.9999C13.3835 44.9999 8 39.6164 8 32.9749C8 26.3335 13.3835 20.95 20.025 20.95C20.3395 20.95 20.6725 20.9685 20.987 20.987C26.8515 21.4495 31.5505 26.1484 32.013 32.0129C32.0315 32.3274 32.05 32.6604 32.05 32.9749Z" fill="#FFAD0A"/>
<path d="M18.397 31.3471L20.025 28.3501L21.653 31.3471L24.65 32.9751L21.653 34.6031L20.025 37.6001L18.397 34.6031L15.4 32.9751L18.397 31.3471Z" fill="#FFAD0A"/>
</svg>
