<svg width="30" height="30" viewBox="0 0 30 30" fill="none" xmlns="http://www.w3.org/2000/svg">
<path d="M21.875 9.04102L21.3069 18.2307C21.1617 20.5785 21.0892 21.7525 20.5007 22.5966C20.2097 23.0139 19.8351 23.366 19.4006 23.6307C18.5219 24.166 17.3457 24.166 14.9933 24.166C12.6379 24.166 11.4601 24.166 10.5808 23.6297C10.1461 23.3646 9.77133 23.0117 9.48046 22.5937C8.89214 21.7484 8.82116 20.5728 8.67923 18.2216L8.125 9.04102" stroke="#FF0000" stroke-width="1.375" stroke-linecap="round"/>
<path d="M23.25 9.04102H6.75" stroke="#FF0000" stroke-width="1.375" stroke-linecap="round"/>
<path d="M18.7192 9.04232L18.0934 7.7514C17.6777 6.89389 17.4699 6.46513 17.1114 6.19773C17.0318 6.13841 16.9477 6.08565 16.8596 6.03996C16.4626 5.83398 15.9861 5.83398 15.0331 5.83398C14.0562 5.83398 13.5677 5.83398 13.1642 6.04859C13.0747 6.09616 12.9894 6.15106 12.909 6.21272C12.5463 6.49096 12.3437 6.93541 11.9385 7.82431L11.3833 9.04232" stroke="#FF0000" stroke-width="1.375" stroke-linecap="round"/>
<path d="M12.7085 19.125V13.625" stroke="#FF0000" stroke-width="1.375" stroke-linecap="round"/>
<path d="M17.2915 19.125V13.625" stroke="#FF0000" stroke-width="1.375" stroke-linecap="round"/>
</svg>
