<svg width="26" height="24" viewBox="0 0 26 24" fill="none" xmlns="http://www.w3.org/2000/svg">
<path d="M2.53842 1.90212C3.90684 0.757006 5.67074 0 7.18421 0C8.37337 0 9.30663 0.189251 10.0675 0.507413C10.8338 0.82969 11.3702 1.25893 11.7848 1.66349C11.9655 1.84177 12.1269 2.01731 12.2597 2.16268L12.3007 2.20794C12.4513 2.3725 12.5566 2.48496 12.6565 2.5741C12.8262 2.72495 12.9028 2.74278 13 2.74278C13.0972 2.74278 13.1738 2.72495 13.3421 2.5741C13.4434 2.48496 13.5501 2.3725 13.6993 2.20794L13.7403 2.16268C13.8744 2.01731 14.0345 1.8404 14.2152 1.66349C14.7075 1.17068 15.2908 0.778501 15.9325 0.508785C16.6934 0.189252 17.6253 0 18.8158 0C20.3293 0 22.0932 0.757006 23.4616 1.90212C24.8382 3.05408 26 4.75597 26 6.78563C26 7.85257 25.9973 9.94805 24.1212 12.1862C23.6148 12.9884 23.2673 13.9347 23.2632 14.7479C23.2495 17.3892 22.6652 19.6205 21.7812 21.2277C20.9382 22.7637 19.6519 23.9993 18.1316 23.9993C17.6417 23.9993 17.186 23.8622 16.796 23.5742C16.4511 23.3075 16.1783 22.9587 16.0023 22.5593C15.6753 21.8572 15.5329 20.9493 15.4303 20.0867C15.3883 19.7222 15.349 19.3574 15.3126 18.9924C15.1553 17.4715 14.9924 15.893 14.4546 14.4723C14.2001 13.9827 13.7622 13.7139 13.3421 13.7139H12.6579C12.2282 13.7139 11.778 13.995 11.5276 14.5093C10.7832 16.0315 10.6915 17.7499 10.6025 19.3983L10.5669 20.0401C10.5163 20.8835 10.4369 21.8174 10.1154 22.5442C9.9375 22.969 9.64337 23.3346 9.26695 23.5988C8.85216 23.8716 8.36436 24.0112 7.86842 23.9993C6.17158 23.9993 4.87295 22.8048 4.05053 21.2017C3.21989 19.5834 2.75053 17.3535 2.73684 14.7479C2.73274 14.0183 2.45358 13.1777 2.01979 12.4207C1.91418 12.2524 1.79422 12.0937 1.66126 11.9462C0 9.96999 0 7.78948 0 6.81031V6.78563C0 4.75597 1.16179 3.05408 2.53842 1.90212ZM18.1316 4.11416C17.8594 4.11416 17.5983 4.22253 17.4059 4.41542C17.2134 4.60831 17.1053 4.86992 17.1053 5.14271C17.1053 5.41549 17.2134 5.67711 17.4059 5.86999C17.5983 6.06288 17.8594 6.17125 18.1316 6.17125C19.1086 6.17125 19.8421 6.90631 19.8421 7.88548C19.8421 8.15827 19.9502 8.41988 20.1427 8.61277C20.3352 8.80566 20.5962 8.91402 20.8684 8.91402C21.1406 8.91402 21.4017 8.80566 21.5941 8.61277C21.7866 8.41988 21.8947 8.15827 21.8947 7.88548C21.9002 7.3887 21.8067 6.89581 21.6195 6.43577C21.4323 5.97572 21.1553 5.55778 20.8048 5.20648C20.4542 4.85518 20.0372 4.57759 19.5782 4.39001C19.1191 4.20244 18.6273 4.10865 18.1316 4.11416Z" fill="#00CCFF"/>
</svg>
