<svg width="13" height="14" viewBox="0 0 13 14" fill="none" xmlns="http://www.w3.org/2000/svg">
<path fill-rule="evenodd" clip-rule="evenodd" d="M10.3358 1.13405L11.9421 2.44137C12.0972 2.5925 12.1841 2.80022 12.1828 3.01675C12.1816 3.23329 12.0923 3.43999 11.9355 3.58931L10.7148 5.07585L6.56079 10.1441C6.48886 10.2289 6.39207 10.2886 6.28413 10.3151L4.13032 10.8106C3.84452 10.8224 3.59807 10.6116 3.56543 10.3275L3.66618 8.20254C3.67365 8.09402 3.71659 7.99103 3.78841 7.90936L7.76324 3.06572L9.16306 1.35785C9.43502 0.987654 9.94664 0.89003 10.3358 1.13405Z" fill="white" stroke="#00CCFF" stroke-width="1.23878" stroke-linecap="round" stroke-linejoin="round"/>
<path d="M0.619392 12.7614C0.277314 12.7614 0 13.0387 0 13.3807C0 13.7229 0.277314 14.0001 0.619392 14.0001V12.7614ZM11.9336 14.0001C12.2757 14.0001 12.553 13.7229 12.553 13.3807C12.553 13.0387 12.2757 12.7614 11.9336 12.7614V14.0001ZM8.33743 2.83401C8.20934 2.5168 7.84844 2.36344 7.53123 2.49148C7.21401 2.61952 7.06065 2.98047 7.18866 3.29768L8.33743 2.83401ZM10.8512 5.68263C11.1848 5.60724 11.3942 5.27564 11.3188 4.94197C11.2434 4.60829 10.9119 4.39891 10.5781 4.47429L10.8512 5.68263ZM0.619392 14.0001H11.9336V12.7614H0.619392V14.0001ZM7.18866 3.29768C7.38084 3.77368 7.77543 4.45227 8.36303 4.97478C8.96144 5.50694 9.81364 5.917 10.8512 5.68263L10.5781 4.47429C10.0474 4.59421 9.58893 4.40717 9.18624 4.04907C8.77265 3.68129 8.47559 3.17644 8.33743 2.83401L7.18866 3.29768Z" fill="white"/>
</svg>
