<svg width="39" height="43" viewBox="0 0 39 43" fill="none" xmlns="http://www.w3.org/2000/svg">
<circle cx="19" cy="13" r="13" fill="url(#paint0_linear_591_1313)"/>
<path d="M3.28551 34V29.6364H6.22585V30.397H4.2081V31.4368H6.07457V32.1974H4.2081V33.2393H6.23438V34H3.28551ZM6.94229 34V30.7273H7.80735V31.3047H7.8457C7.91388 31.1129 8.02752 30.9616 8.18661 30.8509C8.3457 30.7401 8.53604 30.6847 8.75764 30.6847C8.98207 30.6847 9.17312 30.7408 9.33079 30.853C9.48846 30.9638 9.59357 31.1143 9.64613 31.3047H9.68022C9.74698 31.1172 9.86772 30.9673 10.0424 30.8551C10.2186 30.7415 10.4267 30.6847 10.6667 30.6847C10.9721 30.6847 11.22 30.782 11.4103 30.9766C11.6021 31.1697 11.698 31.4439 11.698 31.799V34H10.7924V31.978C10.7924 31.7962 10.7441 31.6598 10.6475 31.5689C10.551 31.478 10.4302 31.4325 10.2853 31.4325C10.1206 31.4325 9.99201 31.4851 9.89968 31.5902C9.80735 31.6939 9.76119 31.831 9.76119 32.0014V34H8.88121V31.9588C8.88121 31.7983 8.83505 31.6705 8.74272 31.5753C8.65181 31.4801 8.53178 31.4325 8.38264 31.4325C8.28178 31.4325 8.19087 31.4581 8.10991 31.5092C8.03036 31.5589 7.96715 31.6293 7.92028 31.7202C7.8734 31.8097 7.84996 31.9148 7.84996 32.0355V34H6.94229ZM13.9064 34.0639C13.5698 34.0639 13.28 33.9957 13.0371 33.8594C12.7956 33.7216 12.6096 33.527 12.4789 33.2756C12.3482 33.0227 12.2828 32.7237 12.2828 32.3786C12.2828 32.0419 12.3482 31.7464 12.4789 31.4922C12.6096 31.2379 12.7935 31.0398 13.0307 30.8977C13.2694 30.7557 13.5492 30.6847 13.8702 30.6847C14.0861 30.6847 14.2871 30.7195 14.4732 30.7891C14.6607 30.8572 14.824 30.9602 14.9632 31.098C15.1039 31.2358 15.2132 31.4091 15.2914 31.6179C15.3695 31.8253 15.4086 32.0682 15.4086 32.3466V32.5959H12.6451V32.0334H14.5542C14.5542 31.9027 14.5257 31.7869 14.4689 31.6861C14.4121 31.5852 14.3333 31.5064 14.2324 31.4496C14.133 31.3913 14.0172 31.3622 13.8851 31.3622C13.7473 31.3622 13.6252 31.3942 13.5186 31.4581C13.4135 31.5206 13.3311 31.6051 13.2715 31.7116C13.2118 31.8168 13.1813 31.9339 13.1799 32.0632V32.598C13.1799 32.7599 13.2097 32.8999 13.2694 33.0178C13.3304 33.1357 13.4164 33.2266 13.5272 33.2905C13.638 33.3544 13.7694 33.3864 13.9213 33.3864C14.0222 33.3864 14.1145 33.3722 14.1983 33.3438C14.2821 33.3153 14.3539 33.2727 14.4135 33.2159C14.4732 33.1591 14.5186 33.0895 14.5499 33.0071L15.3894 33.0625C15.3468 33.2642 15.2594 33.4403 15.1273 33.5909C14.9966 33.7401 14.8276 33.8565 14.6202 33.9403C14.4142 34.0227 14.1763 34.0639 13.9064 34.0639ZM16.0009 34V30.7273H16.8809V31.2983H16.915C16.9746 31.0952 17.0748 30.9418 17.2154 30.8381C17.356 30.733 17.5179 30.6804 17.7012 30.6804C17.7466 30.6804 17.7956 30.6832 17.8482 30.6889C17.9007 30.6946 17.9469 30.7024 17.9867 30.7124V31.5178C17.9441 31.505 17.8851 31.4936 17.8098 31.4837C17.7346 31.4737 17.6657 31.4688 17.6032 31.4688C17.4696 31.4688 17.3503 31.4979 17.2452 31.5561C17.1415 31.6129 17.0591 31.6925 16.998 31.7947C16.9384 31.897 16.9086 32.0149 16.9086 32.1484V34H16.0009ZM19.7781 35.2955C19.484 35.2955 19.2319 35.255 19.0217 35.174C18.8129 35.0945 18.6467 34.9858 18.5231 34.848C18.3995 34.7102 18.3192 34.5554 18.2823 34.3835L19.1218 34.2706C19.1474 34.3359 19.1879 34.397 19.2433 34.4538C19.2987 34.5107 19.3718 34.5561 19.4627 34.5902C19.555 34.6257 19.6673 34.6435 19.7994 34.6435C19.9968 34.6435 20.1594 34.5952 20.2873 34.4986C20.4165 34.4034 20.4812 34.2436 20.4812 34.0192V33.4205H20.4428C20.4031 33.5114 20.3434 33.5973 20.2638 33.6783C20.1843 33.7592 20.082 33.8253 19.957 33.8764C19.832 33.9276 19.6829 33.9531 19.5096 33.9531C19.2638 33.9531 19.0401 33.8963 18.8384 33.7827C18.6381 33.6676 18.4783 33.4922 18.359 33.2564C18.2411 33.0192 18.1822 32.7195 18.1822 32.3572C18.1822 31.9865 18.2425 31.6768 18.3633 31.4283C18.484 31.1797 18.6445 30.9936 18.8448 30.87C19.0465 30.7464 19.2674 30.6847 19.5075 30.6847C19.6907 30.6847 19.8441 30.7159 19.9677 30.7784C20.0913 30.8395 20.1907 30.9162 20.266 31.0085C20.3427 31.0994 20.4016 31.1889 20.4428 31.277H20.4769V30.7273H21.3782V34.032C21.3782 34.3104 21.31 34.5433 21.1737 34.7308C21.0373 34.9183 20.8484 35.0589 20.6069 35.1527C20.3668 35.2479 20.0906 35.2955 19.7781 35.2955ZM19.7972 33.2713C19.9435 33.2713 20.0671 33.2351 20.168 33.1626C20.2702 33.0888 20.3484 32.9837 20.4023 32.8473C20.4577 32.7095 20.4854 32.5447 20.4854 32.353C20.4854 32.1612 20.4585 31.995 20.4045 31.8544C20.3505 31.7124 20.2724 31.6023 20.1701 31.5241C20.0678 31.446 19.9435 31.407 19.7972 31.407C19.6481 31.407 19.5224 31.4474 19.4201 31.5284C19.3178 31.608 19.2404 31.7187 19.1879 31.8608C19.1353 32.0028 19.109 32.1669 19.109 32.353C19.109 32.5419 19.1353 32.7053 19.1879 32.843C19.2418 32.9794 19.3192 33.0852 19.4201 33.1605C19.5224 33.2344 19.6481 33.2713 19.7972 33.2713ZM23.592 34.0639C23.2553 34.0639 22.9656 33.9957 22.7227 33.8594C22.4812 33.7216 22.2951 33.527 22.1644 33.2756C22.0337 33.0227 21.9684 32.7237 21.9684 32.3786C21.9684 32.0419 22.0337 31.7464 22.1644 31.4922C22.2951 31.2379 22.479 31.0398 22.7163 30.8977C22.9549 30.7557 23.2347 30.6847 23.5558 30.6847C23.7717 30.6847 23.9727 30.7195 24.1587 30.7891C24.3462 30.8572 24.5096 30.9602 24.6488 31.098C24.7894 31.2358 24.8988 31.4091 24.9769 31.6179C25.055 31.8253 25.0941 32.0682 25.0941 32.3466V32.5959H22.3306V32.0334H24.2397C24.2397 31.9027 24.2113 31.7869 24.1545 31.6861C24.0977 31.5852 24.0188 31.5064 23.918 31.4496C23.8185 31.3913 23.7028 31.3622 23.5707 31.3622C23.4329 31.3622 23.3107 31.3942 23.2042 31.4581C23.0991 31.5206 23.0167 31.6051 22.957 31.7116C22.8974 31.8168 22.8668 31.9339 22.8654 32.0632V32.598C22.8654 32.7599 22.8952 32.8999 22.9549 33.0178C23.016 33.1357 23.1019 33.2266 23.2127 33.2905C23.3235 33.3544 23.4549 33.3864 23.6069 33.3864C23.7077 33.3864 23.8001 33.3722 23.8839 33.3438C23.9677 33.3153 24.0394 33.2727 24.0991 33.2159C24.1587 33.1591 24.2042 33.0895 24.2354 33.0071L25.0749 33.0625C25.0323 33.2642 24.945 33.4403 24.8129 33.5909C24.6822 33.7401 24.5131 33.8565 24.3058 33.9403C24.0998 34.0227 23.8619 34.0639 23.592 34.0639ZM26.5941 32.108V34H25.6864V30.7273H26.5515V31.3047H26.5898C26.6623 31.1143 26.7837 30.9638 26.9542 30.853C27.1246 30.7408 27.3313 30.6847 27.5742 30.6847C27.8015 30.6847 27.9996 30.7344 28.1687 30.8338C28.3377 30.9332 28.4691 31.0753 28.5629 31.2599C28.6566 31.4432 28.7035 31.6619 28.7035 31.9162V34H27.7958V32.0781C27.7972 31.8778 27.7461 31.7216 27.6424 31.6094C27.5387 31.4957 27.396 31.4389 27.2141 31.4389C27.092 31.4389 26.984 31.4652 26.8903 31.5178C26.7979 31.5703 26.7255 31.647 26.6729 31.7479C26.6218 31.8473 26.5955 31.9673 26.5941 32.108ZM30.8975 34.0639C30.5623 34.0639 30.274 33.9929 30.0325 33.8509C29.7924 33.7074 29.6078 33.5085 29.4785 33.2543C29.3507 33 29.2868 32.7074 29.2868 32.3764C29.2868 32.0412 29.3514 31.7472 29.4806 31.4943C29.6113 31.2401 29.7967 31.0419 30.0368 30.8999C30.2768 30.7564 30.5623 30.6847 30.8933 30.6847C31.1788 30.6847 31.4288 30.7365 31.6433 30.8402C31.8578 30.9439 32.0275 31.0895 32.1525 31.277C32.2775 31.4645 32.3464 31.6847 32.3592 31.9375H31.5027C31.4785 31.7741 31.4146 31.6428 31.3109 31.5433C31.2086 31.4425 31.0744 31.392 30.9082 31.392C30.7676 31.392 30.6447 31.4304 30.5396 31.5071C30.4359 31.5824 30.3549 31.6925 30.2967 31.8374C30.2385 31.9822 30.2093 32.1577 30.2093 32.3636C30.2093 32.5724 30.2377 32.75 30.2946 32.8963C30.3528 33.0426 30.4345 33.1541 30.5396 33.2308C30.6447 33.3075 30.7676 33.3459 30.9082 33.3459C31.0119 33.3459 31.1049 33.3246 31.1873 33.282C31.2711 33.2393 31.34 33.1776 31.394 33.0966C31.4494 33.0142 31.4856 32.9155 31.5027 32.8004H32.3592C32.345 33.0504 32.2768 33.2706 32.1547 33.4609C32.0339 33.6499 31.867 33.7976 31.6539 33.9041C31.4409 34.0107 31.1887 34.0639 30.8975 34.0639ZM33.5007 35.2273C33.3857 35.2273 33.2777 35.218 33.1768 35.1996C33.0774 35.1825 32.995 35.1605 32.9297 35.1335L33.1342 34.456C33.2408 34.4886 33.3366 34.5064 33.4219 34.5092C33.5085 34.5121 33.5831 34.4922 33.6456 34.4496C33.7095 34.407 33.7614 34.3345 33.8011 34.2322L33.8544 34.0938L32.6804 30.7273H33.6349L34.3125 33.1307H34.3466L35.0305 30.7273H35.9915L34.7195 34.3537C34.6584 34.5298 34.5753 34.6832 34.4702 34.8139C34.3665 34.946 34.2351 35.0476 34.076 35.1186C33.9169 35.1911 33.7251 35.2273 33.5007 35.2273ZM13.1322 41V36.6364H14.0548V38.4368H15.9276V36.6364H16.8481V41H15.9276V39.1974H14.0548V41H13.1322ZM19.0832 41.0639C18.7465 41.0639 18.4568 40.9957 18.2139 40.8594C17.9724 40.7216 17.7863 40.527 17.6556 40.2756C17.5249 40.0227 17.4596 39.7237 17.4596 39.3786C17.4596 39.0419 17.5249 38.7464 17.6556 38.4922C17.7863 38.2379 17.9703 38.0398 18.2075 37.8977C18.4461 37.7557 18.7259 37.6847 19.047 37.6847C19.2629 37.6847 19.4639 37.7195 19.6499 37.7891C19.8374 37.8572 20.0008 37.9602 20.14 38.098C20.2806 38.2358 20.39 38.4091 20.4681 38.6179C20.5463 38.8253 20.5853 39.0682 20.5853 39.3466V39.5959H17.8218V39.0334H19.7309C19.7309 38.9027 19.7025 38.7869 19.6457 38.6861C19.5889 38.5852 19.51 38.5064 19.4092 38.4496C19.3097 38.3913 19.194 38.3622 19.0619 38.3622C18.9241 38.3622 18.8019 38.3942 18.6954 38.4581C18.5903 38.5206 18.5079 38.6051 18.4482 38.7116C18.3886 38.8168 18.358 38.9339 18.3566 39.0632V39.598C18.3566 39.7599 18.3865 39.8999 18.4461 40.0178C18.5072 40.1357 18.5931 40.2266 18.7039 40.2905C18.8147 40.3544 18.9461 40.3864 19.0981 40.3864C19.199 40.3864 19.2913 40.3722 19.3751 40.3438C19.4589 40.3153 19.5306 40.2727 19.5903 40.2159C19.6499 40.1591 19.6954 40.0895 19.7267 40.0071L20.5661 40.0625C20.5235 40.2642 20.4362 40.4403 20.3041 40.5909C20.1734 40.7401 20.0044 40.8565 19.797 40.9403C19.591 41.0227 19.3531 41.0639 19.0832 41.0639ZM22.0853 36.6364V41H21.1776V36.6364H22.0853ZM22.8124 42.2273V37.7273H23.7073V38.277H23.7478C23.7876 38.1889 23.8451 38.0994 23.9204 38.0085C23.9971 37.9162 24.0965 37.8395 24.2187 37.7784C24.3422 37.7159 24.4956 37.6847 24.6789 37.6847C24.9175 37.6847 25.1377 37.7472 25.3394 37.8722C25.5411 37.9957 25.7023 38.1825 25.8231 38.4325C25.9438 38.6811 26.0042 38.9929 26.0042 39.3679C26.0042 39.733 25.9452 40.0412 25.8273 40.2926C25.7108 40.5426 25.5518 40.7322 25.3501 40.8615C25.1498 40.9893 24.9253 41.0533 24.6768 41.0533C24.5006 41.0533 24.3508 41.0241 24.2272 40.9659C24.105 40.9077 24.0049 40.8345 23.9268 40.7464C23.8486 40.657 23.789 40.5668 23.7478 40.4759H23.7201V42.2273H22.8124ZM23.7009 39.3636C23.7009 39.5582 23.7279 39.728 23.7819 39.8729C23.8358 40.0178 23.914 40.1307 24.0162 40.2116C24.1185 40.2912 24.2428 40.331 24.3891 40.331C24.5368 40.331 24.6618 40.2905 24.7641 40.2095C24.8664 40.1271 24.9438 40.0135 24.9964 39.8686C25.0503 39.7223 25.0773 39.554 25.0773 39.3636C25.0773 39.1747 25.051 39.0085 24.9985 38.8651C24.9459 38.7216 24.8685 38.6094 24.7662 38.5284C24.664 38.4474 24.5383 38.407 24.3891 38.407C24.2414 38.407 24.1164 38.446 24.0141 38.5241C23.9133 38.6023 23.8358 38.7131 23.7819 38.8565C23.7279 39 23.7009 39.169 23.7009 39.3636Z" fill="white"/>
<path d="M14.5 11.5C14.6326 11.5 14.7598 11.5527 14.8536 11.6464C14.9473 11.7402 15 11.8674 15 12V13C15 14.0609 15.4214 15.0783 16.1716 15.8284C16.9217 16.5786 17.9391 17 19 17C20.0609 17 21.0783 16.5786 21.8284 15.8284C22.5786 15.0783 23 14.0609 23 13V12C23 11.8674 23.0527 11.7402 23.1464 11.6464C23.2402 11.5527 23.3674 11.5 23.5 11.5C23.6326 11.5 23.7598 11.5527 23.8536 11.6464C23.9473 11.7402 24 11.8674 24 12V13C24 14.2395 23.5396 15.4349 22.7081 16.3541C21.8766 17.2734 20.7333 17.851 19.5 17.975V20H22.5C22.6326 20 22.7598 20.0527 22.8536 20.1464C22.9473 20.2402 23 20.3674 23 20.5C23 20.6326 22.9473 20.7598 22.8536 20.8536C22.7598 20.9473 22.6326 21 22.5 21H15.5C15.3674 21 15.2402 20.9473 15.1464 20.8536C15.0527 20.7598 15 20.6326 15 20.5C15 20.3674 15.0527 20.2402 15.1464 20.1464C15.2402 20.0527 15.3674 20 15.5 20H18.5V17.975C17.2667 17.851 16.1234 17.2734 15.2919 16.3541C14.4604 15.4349 14 14.2395 14 13V12C14 11.8674 14.0527 11.7402 14.1464 11.6464C14.2402 11.5527 14.3674 11.5 14.5 11.5Z" fill="white"/>
<path d="M21 13C21 13.5304 20.7893 14.0391 20.4142 14.4142C20.0391 14.7893 19.5304 15 19 15C18.4696 15 17.9609 14.7893 17.5858 14.4142C17.2107 14.0391 17 13.5304 17 13V8C17 7.46957 17.2107 6.96086 17.5858 6.58579C17.9609 6.21071 18.4696 6 19 6C19.5304 6 20.0391 6.21071 20.4142 6.58579C20.7893 6.96086 21 7.46957 21 8V13ZM19 5C18.2044 5 17.4413 5.31607 16.8787 5.87868C16.3161 6.44129 16 7.20435 16 8V13C16 13.7956 16.3161 14.5587 16.8787 15.1213C17.4413 15.6839 18.2044 16 19 16C19.7956 16 20.5587 15.6839 21.1213 15.1213C21.6839 14.5587 22 13.7956 22 13V8C22 7.20435 21.6839 6.44129 21.1213 5.87868C20.5587 5.31607 19.7956 5 19 5Z" fill="white"/>
<defs>
<linearGradient id="paint0_linear_591_1313" x1="19" y1="0" x2="19" y2="26" gradientUnits="userSpaceOnUse">
<stop stop-color="#00CCFF"/>
<stop offset="1" stop-color="#255899" stop-opacity="0.6"/>
</linearGradient>
</defs>
</svg>
