<svg width="27" height="24" viewBox="0 0 27 24" fill="none" xmlns="http://www.w3.org/2000/svg">
<g clip-path="url(#clip0_442_3711)">
<path fill-rule="evenodd" clip-rule="evenodd" d="M13.6523 2C19.49 2 24.2221 6.477 24.2221 12C24.2221 17.523 19.49 22 13.6523 22C7.81462 22 3.08252 17.523 3.08252 12C3.08252 6.477 7.81462 2 13.6523 2ZM16.6119 13.857C15.8225 14.5912 14.7593 15.0018 13.6523 15C12.5454 15.0018 11.4822 14.5912 10.6928 13.857C10.5942 13.7629 10.4768 13.6882 10.3474 13.6374C10.218 13.5866 10.0793 13.5606 9.93919 13.561C9.79912 13.5614 9.66052 13.5881 9.53145 13.6396C9.40238 13.6911 9.28541 13.7663 9.18735 13.8609C9.08929 13.9556 9.01208 14.0677 8.96023 14.1908C8.90837 14.3139 8.8829 14.4455 8.88528 14.578C8.88767 14.7105 8.91787 14.8413 8.97413 14.9626C9.03039 15.084 9.11159 15.1936 9.213 15.285C10.3975 16.3858 11.992 17.0018 13.6523 17C15.3127 17.0018 16.9071 16.3858 18.0916 15.285C18.2871 15.0984 18.3972 14.8465 18.3979 14.5838C18.3987 14.321 18.2902 14.0685 18.0957 13.8809C17.9013 13.6933 17.6367 13.5856 17.359 13.5811C17.0813 13.5767 16.8129 13.6758 16.6119 13.857ZM9.95289 8C9.5324 8 9.12913 8.15804 8.83179 8.43934C8.53446 8.72064 8.36742 9.10218 8.36742 9.5C8.36742 9.89782 8.53446 10.2794 8.83179 10.5607C9.12913 10.842 9.5324 11 9.95289 11C10.3734 11 10.7767 10.842 11.074 10.5607C11.3713 10.2794 11.5384 9.89782 11.5384 9.5C11.5384 9.10218 11.3713 8.72064 11.074 8.43934C10.7767 8.15804 10.3734 8 9.95289 8ZM17.3517 8C16.9313 8 16.528 8.15804 16.2307 8.43934C15.9333 8.72064 15.7663 9.10218 15.7663 9.5C15.7663 9.89782 15.9333 10.2794 16.2307 10.5607C16.528 10.842 16.9313 11 17.3517 11C17.7722 11 18.1755 10.842 18.4728 10.5607C18.7702 10.2794 18.9372 9.89782 18.9372 9.5C18.9372 9.10218 18.7702 8.72064 18.4728 8.43934C18.1755 8.15804 17.7722 8 17.3517 8Z" fill="#00CCFF"/>
</g>
<defs>
<clipPath id="clip0_442_3711">
<rect width="25.3675" height="24" fill="white" transform="translate(0.96875)"/>
</clipPath>
</defs>
</svg>
