<svg width="36" height="26" viewBox="0 0 36 26" fill="none" xmlns="http://www.w3.org/2000/svg">
<path d="M23.9998 13C22.4578 13 20.9668 12.3219 19.7998 11.0914C18.6651 9.89107 17.9721 8.29045 17.8498 6.58567C17.7193 4.76715 18.2826 3.09488 19.4353 1.87613C20.5881 0.657386 22.1998 0 23.9998 0C25.787 0 27.4033 0.669204 28.5523 1.885C29.7125 3.11261 30.2773 4.78193 30.1468 6.58494C30.0215 8.29192 29.3293 9.89181 28.1968 11.0906C27.0328 12.3219 25.5425 13 23.9998 13ZM33.887 26H14.1133C13.7954 26.0016 13.4814 25.9315 13.1953 25.7948C12.9093 25.6582 12.6588 25.4588 12.4633 25.2118C12.256 24.9442 12.1128 24.6338 12.0445 24.3039C11.9761 23.974 11.9845 23.6332 12.0689 23.3069C12.7003 20.8096 14.2648 18.7384 16.5928 17.318C18.6591 16.0579 21.2893 15.3636 23.9998 15.3636C26.7635 15.3636 29.3248 16.0284 31.403 17.2878C33.7362 18.7008 35.303 20.7837 35.9315 23.3113C36.0148 23.6378 36.0222 23.9787 35.9532 24.3084C35.8841 24.6381 35.7403 24.9482 35.5325 25.2155C35.3372 25.4613 35.0873 25.6598 34.8021 25.7957C34.5169 25.9317 34.2039 26.0016 33.887 26ZM9.82486 13.2954C7.18563 13.2954 4.86514 10.8786 4.64989 7.90857C4.54339 6.38698 5.02489 4.97988 5.99988 3.94801C6.96438 2.92647 8.32487 2.36363 9.82486 2.36363C11.3249 2.36363 12.6748 2.92943 13.6446 3.95687C14.6271 4.99687 15.1071 6.40101 14.9946 7.91005C14.7793 10.8794 12.4596 13.2954 9.82486 13.2954ZM14.7493 15.6184C13.4301 14.9832 11.7179 14.6656 9.82561 14.6656C7.61612 14.6656 5.47039 15.2329 3.7829 16.2625C1.86966 17.4318 0.582662 19.1344 0.0629144 21.19C-0.0131464 21.4856 -0.0203404 21.7944 0.0418705 22.0932C0.104081 22.392 0.234087 22.6731 0.422162 22.9154C0.600622 23.1411 0.829249 23.3234 1.09046 23.4483C1.35167 23.5733 1.6385 23.6376 1.9289 23.6363H10.2539C10.3944 23.6363 10.5304 23.5877 10.6383 23.499C10.7462 23.4104 10.819 23.2872 10.8441 23.1511C10.8524 23.1045 10.8629 23.058 10.8749 23.0122C11.5109 20.4964 13.0011 18.3706 15.2031 16.8209C15.2841 16.7635 15.3492 16.687 15.3926 16.5984C15.436 16.5099 15.4563 16.412 15.4516 16.3138C15.4469 16.2156 15.4174 16.1201 15.3657 16.0359C15.3141 15.9518 15.2419 15.8817 15.1558 15.8319C15.0381 15.764 14.9031 15.6923 14.7493 15.6184Z" fill="#00CCFF"/>
</svg>
