<svg width="53" height="53" viewBox="0 0 53 53" fill="none" xmlns="http://www.w3.org/2000/svg">
<circle cx="26.5" cy="26.5" r="26.5" fill="#00CCFF" fill-opacity="0.11"/>
<path d="M22.0301 21.2952C22.9883 21.2952 23.765 22.072 23.765 23.0301C23.765 23.9884 22.9883 24.7651 22.0301 24.7651C21.072 24.7651 20.2953 23.9884 20.2953 23.0301C20.2953 22.072 21.072 21.2952 22.0301 21.2952Z" fill="#00CCFF"/>
<path d="M27.2349 29.97C27.2349 30.9282 28.0118 31.7049 28.9698 31.7049C29.928 31.7049 30.7047 30.9282 30.7047 29.97C30.7047 29.0118 29.928 28.235 28.9698 28.235C28.0118 28.235 27.2349 29.0118 27.2349 29.97Z" fill="#00CCFF"/>
<path d="M23.2569 31.1966L30.1966 24.2569C30.8742 23.5795 30.8742 22.4809 30.1966 21.8034C29.5191 21.1258 28.4207 21.1258 27.743 21.8034L20.8034 28.7431C20.1259 29.4206 20.1259 30.5191 20.8034 31.1966C21.481 31.8741 22.5794 31.8741 23.2569 31.1966Z" fill="#00CCFF"/>
<path fill-rule="evenodd" clip-rule="evenodd" d="M32.9804 12.7447L31.001 13.2193L29.937 11.4841C27.9061 8.17197 23.0938 8.17197 21.063 11.4841L19.999 13.2193L18.0196 12.7447C14.2415 11.8387 10.8387 15.2415 11.7447 19.0196L12.2193 20.999L10.4841 22.063C7.17197 24.0939 7.17197 28.9062 10.4841 30.9371L12.2193 32.0011L11.7447 33.9805C10.8387 37.7584 14.2415 41.1613 18.0196 40.2553L19.999 39.7806L21.063 41.5159C23.0938 44.828 27.9061 44.828 29.937 41.5159L31.001 39.7806L32.9804 40.2553C36.7585 41.1613 40.1614 37.7584 39.2554 33.9805L38.7807 32.0011L40.516 30.9371C43.8281 28.9062 43.8281 24.0939 40.516 22.063L38.7807 20.999L39.2554 19.0196C40.1614 15.2415 36.7585 11.8387 32.9804 12.7447ZM24.0209 13.2979C24.6979 12.1938 26.302 12.1938 26.979 13.2979L28.7016 16.1071C29.0942 16.7475 29.8546 17.0624 30.5851 16.8873L33.7895 16.1189C35.0489 15.8169 36.1832 16.9511 35.8812 18.2105L35.1128 21.4149C34.9375 22.1455 35.2524 22.9058 35.893 23.2984L38.7021 25.021C39.8062 25.698 39.8062 27.3021 38.7021 27.9791L35.893 29.7015C35.2524 30.0943 34.9375 30.8545 35.1128 31.5851L35.8812 34.7895C36.1832 36.0488 35.0489 37.1831 33.7895 36.8811L30.5851 36.1127C29.8546 35.9376 29.0942 36.2525 28.7016 36.8929L26.979 39.7022C26.302 40.8062 24.6979 40.8062 24.0209 39.7022L22.2985 36.8929C21.9058 36.2525 21.1455 35.9376 20.4149 36.1127L17.2105 36.8811C15.9511 37.1831 14.8169 36.0488 15.1189 34.7895L15.8873 31.5851C16.0625 30.8545 15.7475 30.0943 15.1071 29.7015L12.2979 27.9791C11.1938 27.3021 11.1938 25.698 12.2979 25.021L15.1071 23.2984C15.7475 22.9058 16.0625 22.1455 15.8873 21.4149L15.1189 18.2105C14.8169 16.9511 15.9511 15.8169 17.2105 16.1189L20.4149 16.8873C21.1455 17.0624 21.9058 16.7475 22.2985 16.1071L24.0209 13.2979Z" fill="#00CCFF"/>
</svg>
