<svg width="31" height="26" viewBox="0 0 31 26" fill="none" xmlns="http://www.w3.org/2000/svg">
<path d="M1 17V19.88C1 21.672 1 22.568 1.35122 23.2528C1.66014 23.8549 2.15306 24.3444 2.75933 24.6512C3.44728 25 4.3495 25 6.15072 25H30M1 17V1M1 17L7.20761 11.864L7.21406 11.8592C8.337 10.9296 8.89928 10.464 9.50989 10.2752C10.2303 10.0515 11.0069 10.086 11.7042 10.3728C12.2955 10.6176 12.8127 11.1312 13.8502 12.1616L13.8599 12.1712C14.9136 13.2176 15.4404 13.7424 16.0413 13.984C16.7525 14.2718 17.5439 14.2979 18.2727 14.0576C18.8898 13.8528 19.4537 13.3632 20.5814 12.384L30 4.2" stroke="#00CCFF" stroke-width="2" stroke-linecap="round" stroke-linejoin="round"/>
</svg>
