<svg width="36" height="35" viewBox="0 0 36 35" fill="none" xmlns="http://www.w3.org/2000/svg">
<g filter="url(#filter0_dd_158_566)">
<path d="M17.2943 2.29129C17.4816 2.1042 17.7356 1.9991 18.0003 1.9991C18.2651 1.9991 18.519 2.1042 18.7064 2.29129L30.2826 13.8675C30.3748 13.9629 30.4851 14.039 30.607 14.0913C30.7289 14.1436 30.86 14.1711 30.9927 14.1722C31.1254 14.1733 31.2569 14.1479 31.3797 14.0976C31.5024 14.0473 31.6139 13.9731 31.7077 13.8792C31.8015 13.7854 31.8756 13.6738 31.9258 13.551C31.976 13.4282 32.0012 13.2966 32 13.1639C31.9987 13.0313 31.9711 12.9002 31.9187 12.7783C31.8663 12.6565 31.7901 12.5463 31.6947 12.4541L20.1197 0.877901C19.8414 0.599573 19.511 0.37879 19.1474 0.228159C18.7837 0.0775287 18.3939 0 18.0003 0C17.6067 0 17.217 0.0775287 16.8533 0.228159C16.4896 0.37879 16.1592 0.599573 15.8809 0.877901L4.30467 12.4541C4.20929 12.5463 4.13323 12.6566 4.08093 12.7785C4.02862 12.9005 4.00112 13.0316 4.00003 13.1642C3.99894 13.2969 4.02429 13.4284 4.07458 13.5512C4.12487 13.674 4.19911 13.7855 4.29296 13.8792C4.38681 13.973 4.4984 14.0471 4.62121 14.0973C4.74402 14.1475 4.87559 14.1727 5.00825 14.1715C5.14091 14.1703 5.272 14.1427 5.39386 14.0902C5.51573 14.0378 5.62594 13.9617 5.71806 13.8662L17.2943 2.29129Z" fill="white"/>
<path d="M18.0008 4.41064L28.8697 15.2795C28.9097 15.3195 28.9496 15.3568 28.9909 15.3941V23.6506C28.9909 25.0294 27.8719 26.1484 26.4932 26.1484H21.9972C21.7323 26.1484 21.4781 26.0431 21.2908 25.8558C21.1034 25.6684 20.9981 25.4143 20.9981 25.1493V19.1547C20.9981 18.8897 20.8929 18.6356 20.7055 18.4482C20.5181 18.2609 20.264 18.1556 19.999 18.1556H16.0026C15.7377 18.1556 15.4835 18.2609 15.2962 18.4482C15.1088 18.6356 15.0035 18.8897 15.0035 19.1547V25.1493C15.0035 25.4143 14.8983 25.6684 14.7109 25.8558C14.5235 26.0431 14.2694 26.1484 14.0044 26.1484H9.50849C8.84605 26.1484 8.21073 25.8852 7.74232 25.4168C7.2739 24.9484 7.01074 24.3131 7.01074 23.6506V15.3941C7.05219 15.357 7.09261 15.3188 7.13197 15.2795L18.0008 4.41064Z" fill="white"/>
</g>
<defs>
<filter id="filter0_dd_158_566" x="0" y="0" width="36" height="34.1484" filterUnits="userSpaceOnUse" color-interpolation-filters="sRGB">
<feFlood flood-opacity="0" result="BackgroundImageFix"/>
<feColorMatrix in="SourceAlpha" type="matrix" values="0 0 0 0 0 0 0 0 0 0 0 0 0 0 0 0 0 0 127 0" result="hardAlpha"/>
<feOffset dy="4"/>
<feGaussianBlur stdDeviation="2"/>
<feComposite in2="hardAlpha" operator="out"/>
<feColorMatrix type="matrix" values="0 0 0 0 0 0 0 0 0 0 0 0 0 0 0 0 0 0 0.25 0"/>
<feBlend mode="normal" in2="BackgroundImageFix" result="effect1_dropShadow_158_566"/>
<feColorMatrix in="SourceAlpha" type="matrix" values="0 0 0 0 0 0 0 0 0 0 0 0 0 0 0 0 0 0 127 0" result="hardAlpha"/>
<feOffset dy="4"/>
<feGaussianBlur stdDeviation="2"/>
<feComposite in2="hardAlpha" operator="out"/>
<feColorMatrix type="matrix" values="0 0 0 0 0 0 0 0 0 0 0 0 0 0 0 0 0 0 0.25 0"/>
<feBlend mode="normal" in2="effect1_dropShadow_158_566" result="effect2_dropShadow_158_566"/>
<feBlend mode="normal" in="SourceGraphic" in2="effect2_dropShadow_158_566" result="shape"/>
</filter>
</defs>
</svg>
