<svg width="84" height="85" viewBox="0 0 84 85" fill="none" xmlns="http://www.w3.org/2000/svg">
<g filter="url(#filter0_dd_442_5315)">
<path d="M51.5598 20.3999H51.5986M74.7 39.0471C75.1343 34.2172 74.5579 29.3497 73.0073 24.7549C71.4568 20.16 68.9662 15.9384 65.6943 12.3591C62.4223 8.77985 58.4408 5.9213 54.0032 3.9656C49.5656 2.00989 44.7693 0.999912 39.9199 1C30.6585 1 21.7765 4.67905 15.2278 11.2278C8.67905 17.7765 5 26.6585 5 35.9199C5.00013 40.6352 5.95525 45.3017 7.80776 49.6379C9.66028 53.9741 12.3718 57.8902 15.7789 61.15C19.1859 64.4099 23.2179 66.9459 27.6316 68.6052C32.0454 70.2646 36.7495 71.0128 41.4602 70.8048" stroke="#00CCFF" stroke-width="2" stroke-linecap="round" stroke-linejoin="round"/>
<path d="M8.87988 47.56L24.3998 32.04C28.0004 28.5752 32.4391 28.5752 36.0398 32.04L51.5597 47.56" stroke="#00CCFF" stroke-width="2" stroke-linecap="round" stroke-linejoin="round"/>
<path d="M47.6812 43.6798L51.5611 39.7998C55.1618 36.335 59.6005 36.335 63.2011 39.7998M55.4411 64.3601H78.721M67.0811 52.7201V76" stroke="#00CCFF" stroke-width="2" stroke-linecap="round" stroke-linejoin="round"/>
</g>
<defs>
<filter id="filter0_dd_442_5315" x="0" y="0" width="83.7212" height="85" filterUnits="userSpaceOnUse" color-interpolation-filters="sRGB">
<feFlood flood-opacity="0" result="BackgroundImageFix"/>
<feColorMatrix in="SourceAlpha" type="matrix" values="0 0 0 0 0 0 0 0 0 0 0 0 0 0 0 0 0 0 127 0" result="hardAlpha"/>
<feOffset dy="4"/>
<feGaussianBlur stdDeviation="2"/>
<feComposite in2="hardAlpha" operator="out"/>
<feColorMatrix type="matrix" values="0 0 0 0 0 0 0 0 0 0 0 0 0 0 0 0 0 0 0.25 0"/>
<feBlend mode="normal" in2="BackgroundImageFix" result="effect1_dropShadow_442_5315"/>
<feColorMatrix in="SourceAlpha" type="matrix" values="0 0 0 0 0 0 0 0 0 0 0 0 0 0 0 0 0 0 127 0" result="hardAlpha"/>
<feOffset dy="4"/>
<feGaussianBlur stdDeviation="2"/>
<feComposite in2="hardAlpha" operator="out"/>
<feColorMatrix type="matrix" values="0 0 0 0 0 0 0 0 0 0 0 0 0 0 0 0 0 0 0.25 0"/>
<feBlend mode="normal" in2="effect1_dropShadow_442_5315" result="effect2_dropShadow_442_5315"/>
<feBlend mode="normal" in="SourceGraphic" in2="effect2_dropShadow_442_5315" result="shape"/>
</filter>
</defs>
</svg>
