<svg width="24" height="23" viewBox="0 0 24 23" fill="none" xmlns="http://www.w3.org/2000/svg">
<path d="M21.7059 11.5H9.41176M19.1176 15.4375L23 11.5L19.1176 7.5625M12.6471 4.9375V3.625C12.6471 2.92881 12.3744 2.26113 11.889 1.76884C11.4036 1.27656 10.7453 1 10.0588 1H3.58824C2.90179 1 2.24346 1.27656 1.75808 1.76884C1.27269 2.26113 1 2.92881 1 3.625V19.375C1 20.0712 1.27269 20.7389 1.75808 21.2312C2.24346 21.7234 2.90179 22 3.58824 22H10.0588C10.7453 22 11.4036 21.7234 11.889 21.2312C12.3744 20.7389 12.6471 20.0712 12.6471 19.375V18.0625" stroke="#00CCFF" stroke-width="2" stroke-linecap="round" stroke-linejoin="round"/>
</svg>
