<svg width="15" height="14" viewBox="0 0 15 14" fill="none" xmlns="http://www.w3.org/2000/svg">
<path d="M14.4161 4.28751C14.0397 3.45083 13.4922 2.69035 12.8039 2.04845C12.1177 1.40543 11.3026 0.894194 10.4049 0.543764C9.48523 0.183032 8.49711 -0.00187867 7.49922 1.43896e-05H7.46566C6.45069 0.00470188 5.46927 0.192202 4.54488 0.560951C3.65485 0.914974 2.8474 1.42712 2.16766 2.06876C1.48609 2.70922 0.944783 3.46704 0.573903 4.30001C0.188909 5.1662 -0.00616922 6.09536 0.000148692 7.03282C0.00518162 8.11719 0.28367 9.19376 0.80374 10.1563V12.5313C0.80374 12.9281 1.14933 13.25 1.57378 13.25H4.12044C5.15869 13.7379 6.30441 13.9947 7.46734 14H7.50257C8.5058 14 9.47716 13.8188 10.3932 13.4641C11.2863 13.1178 12.0984 12.6125 12.7838 11.9766C13.475 11.3375 14.0185 10.5906 14.3994 9.75782C14.7936 8.89532 14.9949 7.97813 15 7.03126C15.0033 6.0797 14.8054 5.15626 14.4161 4.28751ZM4.15064 7.75001C3.70774 7.75001 3.34705 7.41407 3.34705 7.00001C3.34705 6.58595 3.70774 6.25001 4.15064 6.25001C4.59354 6.25001 4.95423 6.58595 4.95423 7.00001C4.95423 7.41407 4.59521 7.75001 4.15064 7.75001ZM7.49922 7.75001C7.05632 7.75001 6.69562 7.41407 6.69562 7.00001C6.69562 6.58595 7.05632 6.25001 7.49922 6.25001C7.94211 6.25001 8.30281 6.58595 8.30281 7.00001C8.30281 7.41407 7.94211 7.75001 7.49922 7.75001ZM10.8478 7.75001C10.4049 7.75001 10.0442 7.41407 10.0442 7.00001C10.0442 6.58595 10.4049 6.25001 10.8478 6.25001C11.2907 6.25001 11.6514 6.58595 11.6514 7.00001C11.6514 7.41407 11.2907 7.75001 10.8478 7.75001Z" fill="#00CCFF"/>
</svg>
