<svg width="36" height="36" viewBox="0 0 36 36" fill="none" xmlns="http://www.w3.org/2000/svg">
<circle cx="18" cy="18" r="17.5" stroke="#00CCFF"/>
<path d="M14.5 25H14C10 25 8 24 8 19V14C8 10 10 8 14 8H22C26 8 28 10 28 14V19C28 23 26 25 22 25H21.5C21.19 25 20.89 25.15 20.7 25.4L19.2 27.4C18.54 28.28 17.46 28.28 16.8 27.4L15.3 25.4C15.14 25.18 14.77 25 14.5 25Z" stroke="#00CCFF" stroke-width="1.5" stroke-miterlimit="10" stroke-linecap="round" stroke-linejoin="round"/>
<path d="M21.9965 17H22.0054" stroke="#00CCFF" stroke-width="2" stroke-linecap="round" stroke-linejoin="round"/>
<path d="M17.9955 17H18.0045" stroke="#00CCFF" stroke-width="2" stroke-linecap="round" stroke-linejoin="round"/>
<path d="M13.9945 17H14.0035" stroke="#00CCFF" stroke-width="2" stroke-linecap="round" stroke-linejoin="round"/>
</svg>
