<svg width="32" height="40" viewBox="0 0 32 40" fill="none" xmlns="http://www.w3.org/2000/svg">
<path d="M29.5508 20.0191C29.8004 20.0544 30.0405 20.1385 30.2575 20.2667C30.4745 20.3949 30.6641 20.5646 30.8154 20.7661C30.9667 20.9676 31.0768 21.197 31.1394 21.4411C31.2019 21.6853 31.2157 21.9393 31.18 22.1888C30.6996 25.5124 29.1419 28.5865 26.746 30.9394C24.3501 33.2924 21.2484 34.7942 17.9167 35.2145V37.25C17.9167 37.7583 17.7147 38.2458 17.3553 38.6053C16.9958 38.9647 16.5083 39.1666 16 39.1666C15.4917 39.1666 15.0042 38.9647 14.6447 38.6053C14.2853 38.2458 14.0833 37.7583 14.0833 37.25V35.2145C10.7521 34.7935 7.65095 33.2914 5.25549 30.9386C2.86003 28.5857 1.30254 25.512 0.821918 22.1888C0.749735 21.6856 0.880423 21.1743 1.18523 20.7674C1.49004 20.3605 1.944 20.0913 2.44725 20.0191C2.9505 19.947 3.46181 20.0777 3.8687 20.3825C4.27559 20.6873 4.54473 21.1412 4.61692 21.6445C5.01332 24.3807 6.38206 26.8826 8.47251 28.692C10.563 30.5014 13.2352 31.4973 16 31.4973C18.7648 31.4973 21.437 30.5014 23.5275 28.692C25.6179 26.8826 26.9867 24.3807 27.3831 21.6445C27.4188 21.3953 27.5032 21.1556 27.6316 20.939C27.76 20.7225 27.9298 20.5333 28.1312 20.3824C28.3327 20.2314 28.562 20.1217 28.8059 20.0594C29.0498 19.997 29.3016 19.9834 29.5508 20.0191ZM16 0.833313C18.5417 0.833313 20.9792 1.84298 22.7764 3.64021C24.5737 5.43743 25.5833 7.87499 25.5833 10.4166V20C25.5833 22.5416 24.5737 24.9792 22.7764 26.7764C20.9792 28.5736 18.5417 29.5833 16 29.5833C13.4583 29.5833 11.0208 28.5736 9.22356 26.7764C7.42634 24.9792 6.41667 22.5416 6.41667 20V10.4166C6.41667 7.87499 7.42634 5.43743 9.22356 3.64021C11.0208 1.84298 13.4583 0.833313 16 0.833313Z" fill="white"/>
</svg>
