<svg width="31" height="31" viewBox="0 0 31 31" fill="none" xmlns="http://www.w3.org/2000/svg">
<path d="M15.4992 20.0212C18.3538 20.0212 20.6659 17.7092 20.6659 14.8546V7.75041C20.6659 4.89582 18.3538 2.58374 15.4992 2.58374C12.6446 2.58374 10.3325 4.89582 10.3325 7.75041V14.8546C10.3325 17.7092 12.6446 20.0212 15.4992 20.0212Z" stroke="white" stroke-width="1.625" stroke-linecap="round" stroke-linejoin="round"/>
<path d="M5.61914 12.4646V14.6604C5.61914 20.1113 10.0496 24.5417 15.5004 24.5417C20.9512 24.5417 25.3816 20.1113 25.3816 14.6604V12.4646" stroke="white" stroke-width="1.625" stroke-linecap="round" stroke-linejoin="round"/>
<path d="M13.7046 8.30589C14.8671 7.87964 16.1329 7.87964 17.2954 8.30589" stroke="white" stroke-width="1.625" stroke-linecap="round" stroke-linejoin="round"/>
<path d="M14.4658 11.0446C15.1504 10.8637 15.8608 10.8637 16.5454 11.0446" stroke="white" stroke-width="1.625" stroke-linecap="round" stroke-linejoin="round"/>
<path d="M15.5 24.5413V28.4163" stroke="white" stroke-width="1.625" stroke-linecap="round" stroke-linejoin="round"/>
</svg>
