<svg width="35" height="35" viewBox="0 0 35 35" fill="none" xmlns="http://www.w3.org/2000/svg">
<path fill-rule="evenodd" clip-rule="evenodd" d="M17.5001 2.91669C25.5545 2.91669 32.0834 9.44565 32.0834 17.5C32.0834 25.5544 25.5545 32.0834 17.5001 32.0834C9.44571 32.0834 2.91675 25.5544 2.91675 17.5C2.91675 9.44565 9.44571 2.91669 17.5001 2.91669ZM24.0626 15.3125C23.4824 15.3125 22.926 15.543 22.5158 15.9532C22.1055 16.3635 21.8751 16.9199 21.8751 17.5C21.8751 18.0802 22.1055 18.6366 22.5158 19.0468C22.926 19.4571 23.4824 19.6875 24.0626 19.6875C24.6427 19.6875 25.1991 19.4571 25.6094 19.0468C26.0196 18.6366 26.2501 18.0802 26.2501 17.5C26.2501 16.9199 26.0196 16.3635 25.6094 15.9532C25.1991 15.543 24.6427 15.3125 24.0626 15.3125ZM17.5001 15.3125C16.9199 15.3125 16.3635 15.543 15.9533 15.9532C15.543 16.3635 15.3126 16.9199 15.3126 17.5C15.3126 18.0802 15.543 18.6366 15.9533 19.0468C16.3635 19.4571 16.9199 19.6875 17.5001 19.6875C18.0802 19.6875 18.6366 19.4571 19.0469 19.0468C19.4571 18.6366 19.6876 18.0802 19.6876 17.5C19.6876 16.9199 19.4571 16.3635 19.0469 15.9532C18.6366 15.543 18.0802 15.3125 17.5001 15.3125ZM10.9376 15.3125C10.3574 15.3125 9.80102 15.543 9.39078 15.9532C8.98055 16.3635 8.75008 16.9199 8.75008 17.5C8.75008 18.0802 8.98055 18.6366 9.39078 19.0468C9.80102 19.4571 10.3574 19.6875 10.9376 19.6875C11.5177 19.6875 12.0741 19.4571 12.4844 19.0468C12.8946 18.6366 13.1251 18.0802 13.1251 17.5C13.1251 16.9199 12.8946 16.3635 12.4844 15.9532C12.0741 15.543 11.5177 15.3125 10.9376 15.3125Z" fill="#00CCFF"/>
</svg>
