<svg width="37" height="37" viewBox="0 0 37 37" fill="none" xmlns="http://www.w3.org/2000/svg">
<path d="M14.1564 36.0002C13.2989 33.2046 12.0056 31.1194 10.2757 29.7465C7.68134 27.6877 3.55919 28.9678 2.03668 26.8433C0.51417 24.7188 3.10331 20.8127 4.01156 18.508C4.9207 16.2032 0.529045 15.3886 1.0418 14.7341C1.38305 14.2975 3.60294 13.0392 7.69971 10.9576C8.86347 4.31977 13.1624 1 20.5982 1C31.751 1 36 10.4553 36 16.4701C36 22.4831 30.855 28.9617 23.5259 30.359C22.8705 31.3128 23.8156 33.1941 26.3609 36.0002" stroke="#00CCFF" stroke-width="2" stroke-linecap="round" stroke-linejoin="round"/>
<path d="M14.5624 10.1875C13.9901 12.4048 14.1599 13.9623 15.0725 14.8592C15.9843 15.7552 17.5383 16.3423 19.7346 16.6179C19.2358 19.4783 19.8439 20.8197 21.5572 20.643C23.2704 20.4671 24.3003 19.7548 24.646 18.5079C27.3235 19.2605 28.7751 18.6305 29 16.6179C29.3369 13.5992 27.7093 11.192 27.0417 11.192C26.375 11.192 24.646 11.1107 24.646 10.1875C24.646 9.2644 22.6264 8.74377 20.8038 8.74377C18.9812 8.74377 20.0776 7.51439 17.575 8.00001C15.9064 8.32377 14.9019 9.05264 14.5624 10.1875Z" stroke="#00CCFF" stroke-width="2" stroke-linejoin="round"/>
<path d="M24.1878 19.8126C23.298 20.3648 22.0773 21.2826 21.5628 22.0001C20.2774 23.7939 19.2353 24.8859 19.0078 26.0322" stroke="#00CCFF" stroke-width="2" stroke-linecap="round" stroke-linejoin="round"/>
</svg>
