<svg width="46" height="46" viewBox="0 0 46 46" fill="none" xmlns="http://www.w3.org/2000/svg">
<path d="M38.9313 24.2401L39.9223 20.5371C41.0799 16.2151 41.6607 14.055 41.2256 12.1843C40.8808 10.7075 40.1057 9.36615 38.9984 8.3299C37.5973 7.01698 35.4353 6.43815 31.1133 5.28048C26.7912 4.1209 24.6292 3.54206 22.7604 3.97715C21.2836 4.32198 19.9423 5.09705 18.906 6.20431C17.7809 7.40415 17.1944 9.16173 16.3223 12.3549L15.8547 14.0895L14.8638 17.7925C13.7042 22.1146 13.1253 24.2746 13.5604 26.1453C13.9053 27.6221 14.6803 28.9635 15.7876 29.9997C17.1887 31.3126 19.3507 31.8915 23.6728 33.0511C27.5674 34.0937 29.7083 34.6668 31.4621 34.4502C31.6538 34.4272 31.8416 34.3927 32.0256 34.3506C33.5019 34.0068 34.8432 33.2331 35.88 32.1272C37.1929 30.7242 37.7718 28.5622 38.9313 24.2401Z" stroke="white" stroke-width="1.5"/>
<path d="M31.4621 34.4503C31.0614 35.6776 30.3573 36.7838 29.4151 37.6664C28.014 38.9794 25.852 39.5582 21.5299 40.7159C17.2078 41.8735 15.0458 42.4543 13.1771 42.0173C11.7005 41.673 10.3592 40.8986 9.32267 39.792C8.00975 38.3909 7.429 36.2289 6.27134 31.9069L5.28042 28.2039C4.12084 23.8818 3.542 21.7198 3.97709 19.851C4.32192 18.3742 5.09699 17.0329 6.20425 15.9966C7.60534 14.6837 9.76734 14.1049 14.0894 12.9453C14.9059 12.7268 15.6477 12.5274 16.3223 12.353" stroke="white" stroke-width="1.5"/>
<path d="M22.5726 19.1665L31.8301 21.6467M21.0833 24.721L26.6378 26.2083" stroke="white" stroke-width="1.5" stroke-linecap="round"/>
</svg>
