<svg width="19" height="25" viewBox="0 0 19 25" fill="none" xmlns="http://www.w3.org/2000/svg">
<path fill-rule="evenodd" clip-rule="evenodd" d="M10.7535 1.26582C10.7535 0.930106 10.6215 0.608139 10.3865 0.370751C10.1515 0.133363 9.83274 0 9.5004 0C9.16806 0 8.84934 0.133363 8.61434 0.370751C8.37934 0.608139 8.24732 0.930106 8.24732 1.26582V2.21519H7.54936C6.20609 2.2151 4.91329 2.73214 3.93413 3.66106C2.95497 4.58998 2.36306 5.86093 2.27891 7.21519L2.00198 11.6886C1.89638 13.3942 1.32945 15.0379 0.36295 16.4405C0.16325 16.7305 0.0412304 17.0677 0.00875719 17.4194C-0.023716 17.7711 0.0344625 18.1253 0.177635 18.4475C0.320807 18.7698 0.544099 19.0492 0.825796 19.2584C1.10749 19.4677 1.43801 19.5998 1.78519 19.6418L6.05443 20.1582V21.519C6.05443 22.4422 6.41749 23.3276 7.06373 23.9804C7.70998 24.6333 8.58647 25 9.5004 25C10.4143 25 11.2908 24.6333 11.9371 23.9804C12.5833 23.3276 12.9464 22.4422 12.9464 21.519V20.1582L17.2156 19.6405C17.5626 19.5984 17.8929 19.4663 18.1744 19.2571C18.4559 19.0479 18.6791 18.7687 18.8222 18.4467C18.9654 18.1246 19.0236 17.7706 18.9913 17.4191C18.959 17.0676 18.8372 16.7304 18.6379 16.4405C17.6713 15.0379 17.1044 13.3943 16.9988 11.6886L16.7219 7.21646C16.6381 5.86197 16.0463 4.5907 15.0671 3.66152C14.0879 2.73234 12.7949 2.21512 11.4514 2.21519H10.7535V1.26582ZM7.54936 4.11392C6.6842 4.11382 5.85152 4.4468 5.22086 5.04507C4.5902 5.64335 4.20896 6.46194 4.15477 7.33418L3.87909 11.8076C3.75171 13.8595 3.0695 15.8367 1.90674 17.524C1.89229 17.545 1.88346 17.5694 1.8811 17.5948C1.87874 17.6203 1.88294 17.6459 1.89328 17.6692C1.90362 17.6925 1.91976 17.7128 1.94012 17.7279C1.96049 17.7431 1.98439 17.7526 2.0095 17.7557L6.69225 18.3241C8.55809 18.5494 10.4427 18.5494 12.3086 18.3241L16.9913 17.7557C17.0164 17.7526 17.0403 17.7431 17.0607 17.7279C17.081 17.7128 17.0972 17.6925 17.1075 17.6692C17.1179 17.6459 17.1221 17.6203 17.1197 17.5948C17.1173 17.5694 17.1085 17.545 17.0941 17.524C15.9318 15.8366 15.25 13.8593 15.123 11.8076L14.846 7.33418C14.7918 6.46194 14.4106 5.64335 13.7799 5.04507C13.1493 4.4468 12.3166 4.11382 11.4514 4.11392H7.54936ZM9.5004 23.1013C8.63578 23.1013 7.93405 22.3924 7.93405 21.519V20.5696H11.0668V21.519C11.0668 22.3924 10.365 23.1013 9.5004 23.1013Z" fill="#00CCFF"/>
</svg>
