<svg width="17" height="18" viewBox="0 0 17 18" fill="none" xmlns="http://www.w3.org/2000/svg">
<path d="M16.3099 13.037C15.833 12.2167 15.124 9.89569 15.124 6.86426C15.124 5.04375 14.3997 3.2978 13.1104 2.0105C11.8211 0.723197 10.0724 0 8.249 0C6.42564 0 4.67696 0.723197 3.38765 2.0105C2.09833 3.2978 1.374 5.04375 1.374 6.86426C1.374 9.89655 0.66416 12.2167 0.187207 13.037C0.0654083 13.2455 0.000838144 13.4824 8.10473e-06 13.7238C-0.000821935 13.9652 0.0621176 14.2026 0.182479 14.4119C0.302841 14.6213 0.476369 14.7953 0.685563 14.9163C0.894757 15.0374 1.13222 15.1012 1.374 15.1014H4.88111C5.03973 15.8763 5.46156 16.5728 6.07524 17.0729C6.68893 17.5731 7.45681 17.8463 8.249 17.8463C9.0412 17.8463 9.80908 17.5731 10.4228 17.0729C11.0365 16.5728 11.4583 15.8763 11.6169 15.1014H15.124C15.3657 15.1011 15.6031 15.0371 15.8121 14.916C16.0212 14.7949 16.1946 14.6209 16.3149 14.4116C16.4351 14.2022 16.498 13.9649 16.4971 13.7236C16.4963 13.4823 16.4317 13.2454 16.3099 13.037ZM8.249 16.4742C7.8226 16.4741 7.40672 16.342 7.0586 16.0962C6.71048 15.8503 6.44723 15.5028 6.3051 15.1014H10.1929C10.0508 15.5028 9.78753 15.8503 9.43941 16.0962C9.09129 16.342 8.67541 16.4741 8.249 16.4742ZM1.374 13.7285C2.03572 12.5925 2.749 9.96005 2.749 6.86426C2.749 5.40785 3.32847 4.01109 4.35992 2.98125C5.39137 1.95141 6.79031 1.37285 8.249 1.37285C9.7077 1.37285 11.1066 1.95141 12.1381 2.98125C13.1695 4.01109 13.749 5.40785 13.749 6.86426C13.749 9.95747 14.4606 12.5899 15.124 13.7285H1.374Z" fill="#00CCFF"/>
</svg>
