<svg width="30" height="30" viewBox="0 0 30 30" fill="none" xmlns="http://www.w3.org/2000/svg">
<path d="M20.8599 8.3374L21.3835 13.7834C21.7237 17.3156 19.0749 20.4614 15.5427 20.8002C12.0777 21.1334 8.93746 18.6008 8.60426 15.1344C8.44395 13.4702 8.95124 11.8105 10.0146 10.5204C11.0779 9.23023 12.6101 8.41529 14.2743 8.2548L20.0801 7.6948C20.1736 7.68573 20.268 7.69521 20.3578 7.72269C20.4477 7.75017 20.5312 7.79511 20.6036 7.85494C20.6761 7.91476 20.736 7.9883 20.78 8.07133C20.8239 8.15436 20.8511 8.24386 20.8599 8.3374Z" stroke="#00CCFF" stroke-width="2" stroke-linecap="round" stroke-linejoin="round"/>
<path d="M15 29C22.7322 29 29 22.7322 29 15C29 7.2678 22.7322 1 15 1C7.2678 1 1 7.2678 1 15C1 22.7322 7.2678 29 15 29Z" stroke="#00CCFF" stroke-width="2" stroke-linecap="round" stroke-linejoin="round"/>
</svg>
