<svg width="31" height="28" viewBox="0 0 31 28" fill="none" xmlns="http://www.w3.org/2000/svg">
<path d="M21.7408 1.72222C22.4913 2.1716 23.1123 2.8069 23.5433 3.56627C23.9742 4.32565 24.2005 5.18323 24.2 6.05556C24.2005 6.92788 23.9742 7.78546 23.5433 8.54484C23.1123 9.30421 22.4913 9.93951 21.7408 10.3889M30 27V26.1333C30 22.8978 30 21.28 29.3678 20.0436C28.8117 18.9564 27.9245 18.0726 26.8332 17.5187M11.875 11.1111C12.5415 11.1111 13.2014 10.9803 13.8171 10.7263C14.4328 10.4722 14.9923 10.0998 15.4636 9.63037C15.9348 9.16092 16.3086 8.6036 16.5637 7.99023C16.8187 7.37686 16.95 6.71946 16.95 6.05556C16.95 5.39165 16.8187 4.73425 16.5637 4.12088C16.3086 3.50751 15.9348 2.95019 15.4636 2.48074C14.9923 2.01129 14.4328 1.6389 13.8171 1.38483C13.2014 1.13077 12.5415 1 11.875 1C10.529 1 9.23818 1.53264 8.28643 2.48074C7.33469 3.42884 6.8 4.71474 6.8 6.05556C6.8 7.39637 7.33469 8.68227 8.28643 9.63037C9.23818 10.5785 10.529 11.1111 11.875 11.1111ZM1 26.1333V27H22.75V26.1333C22.75 22.8978 22.75 21.28 22.1178 20.0436C21.5617 18.9564 20.6745 18.0726 19.5832 17.5187C18.342 16.8889 16.718 16.8889 13.47 16.8889H10.28C7.032 16.8889 5.408 16.8889 4.1668 17.5187C3.07551 18.0726 2.18826 18.9564 1.6322 20.0436C1 21.28 1 22.8978 1 26.1333Z" stroke="#00CCFF" stroke-width="2" stroke-linecap="round" stroke-linejoin="round"/>
</svg>
