<svg width="53" height="53" viewBox="0 0 53 53" fill="none" xmlns="http://www.w3.org/2000/svg">
<circle cx="26.5" cy="26.5" r="26.5" fill="#00CCFF" fill-opacity="0.11"/>
<path d="M19.2083 14.8333C16 14.8333 13.375 17.4583 13.375 20.6666C13.375 23.875 16 26.5 19.2083 26.5C22.4167 26.5 25.0417 23.875 25.0417 20.6666C25.0417 17.4583 22.4167 14.8333 19.2083 14.8333ZM19.2083 23.5833C17.6042 23.5833 16.2917 22.2708 16.2917 20.6666C16.2917 19.0625 17.6042 17.75 19.2083 17.75C20.8125 17.75 22.125 19.0625 22.125 20.6666C22.125 22.2708 20.8125 23.5833 19.2083 23.5833ZM19.2083 29.4166C13.5208 29.4166 9 32.0416 9 35.25V38.1666H25.0417V35.25H11.9167C11.9167 34.375 14.5417 32.3333 19.2083 32.3333C21.8333 32.3333 23.875 33.0625 25.0417 33.7916V30.5833C23.4375 29.8541 21.3958 29.4166 19.2083 29.4166ZM41.0833 14.8333H30.875C29.2708 14.8333 27.9583 16.1458 27.9583 17.75V35.25C27.9583 36.8541 29.2708 38.1666 30.875 38.1666H41.0833C42.6875 38.1666 44 36.8541 44 35.25V17.75C44 16.1458 42.6875 14.8333 41.0833 14.8333ZM32.3333 35.25H30.875V17.75H32.3333V35.25ZM41.0833 35.25H35.25V17.75H41.0833V35.25Z" fill="#00CCFF"/>
</svg>
