<svg width="24" height="18" viewBox="0 0 24 18" fill="none" xmlns="http://www.w3.org/2000/svg">
<path d="M17.25 13.5C17.0511 13.5 16.8603 13.579 16.7197 13.7197C16.579 13.8603 16.5 14.0511 16.5 14.25C16.5 14.4489 16.579 14.6397 16.7197 14.7803C16.8603 14.921 17.0511 15 17.25 15H20.25C20.4489 15 20.6397 14.921 20.7803 14.7803C20.921 14.6397 21 14.4489 21 14.25C21 14.0511 20.921 13.8603 20.7803 13.7197C20.6397 13.579 20.4489 13.5 20.25 13.5H17.25ZM0 4.125C0 3.03098 0.434597 1.98177 1.20818 1.20818C1.98177 0.434597 3.03098 0 4.125 0H19.875C20.969 0 22.0182 0.434597 22.7918 1.20818C23.5654 1.98177 24 3.03098 24 4.125V13.875C24 14.969 23.5654 16.0182 22.7918 16.7918C22.0182 17.5654 20.969 18 19.875 18H4.125C3.03098 18 1.98177 17.5654 1.20818 16.7918C0.434597 16.0182 0 14.969 0 13.875V4.125ZM4.125 1.5C3.42881 1.5 2.76113 1.77656 2.26884 2.26884C1.77656 2.76113 1.5 3.42881 1.5 4.125V6H22.5V4.125C22.5 3.42881 22.2234 2.76113 21.7312 2.26884C21.2389 1.77656 20.5712 1.5 19.875 1.5H4.125ZM22.5 7.5H1.5V13.875C1.5 15.324 2.676 16.5 4.125 16.5H19.875C20.5712 16.5 21.2389 16.2234 21.7312 15.7312C22.2234 15.2389 22.5 14.5712 22.5 13.875V7.5Z" fill="#00CCFF"/>
</svg>
