<svg width="45" height="32" viewBox="0 0 45 32" fill="none" xmlns="http://www.w3.org/2000/svg">
<path d="M5.0625 4.1875C5.0625 3.14321 5.47734 2.14169 6.21577 1.40327C6.95419 0.664843 7.95571 0.25 9 0.25C10.0443 0.25 11.0458 0.664843 11.7842 1.40327C12.5227 2.14169 12.9375 3.14321 12.9375 4.1875C12.9375 5.23179 12.5227 6.23331 11.7842 6.97173C11.0458 7.71016 10.0443 8.125 9 8.125C7.95571 8.125 6.95419 7.71016 6.21577 6.97173C5.47734 6.23331 5.0625 5.23179 5.0625 4.1875ZM4.5 15.2758C3.79688 16.0633 3.375 17.1109 3.375 18.25C3.375 19.3891 3.79688 20.4367 4.5 21.2242V15.2758ZM14.6531 11.8094C12.5648 13.6586 11.25 16.3656 11.25 19.375C11.25 21.7867 12.0938 24.0016 13.5 25.7383V27.25C13.5 28.4945 12.4945 29.5 11.25 29.5H6.75C5.50547 29.5 4.5 28.4945 4.5 27.25V25.3656C1.84219 24.1 0 21.393 0 18.25C0 13.8977 3.52266 10.375 7.875 10.375H10.125C11.8125 10.375 13.3734 10.9023 14.6531 11.8023V11.8094ZM31.5 27.25V25.7383C32.9062 24.0016 33.75 21.7867 33.75 19.375C33.75 16.3656 32.4352 13.6586 30.3469 11.8023C31.6266 10.9023 33.1875 10.375 34.875 10.375H37.125C41.4773 10.375 45 13.8977 45 18.25C45 21.393 43.1578 24.1 40.5 25.3656V27.25C40.5 28.4945 39.4945 29.5 38.25 29.5H33.75C32.5055 29.5 31.5 28.4945 31.5 27.25ZM32.0625 4.1875C32.0625 3.14321 32.4773 2.14169 33.2158 1.40327C33.9542 0.664843 34.9557 0.25 36 0.25C37.0443 0.25 38.0458 0.664843 38.7842 1.40327C39.5227 2.14169 39.9375 3.14321 39.9375 4.1875C39.9375 5.23179 39.5227 6.23331 38.7842 6.97173C38.0458 7.71016 37.0443 8.125 36 8.125C34.9557 8.125 33.9542 7.71016 33.2158 6.97173C32.4773 6.23331 32.0625 5.23179 32.0625 4.1875ZM40.5 15.2758V21.2312C41.2031 20.4367 41.625 19.3961 41.625 18.257C41.625 17.118 41.2031 16.0703 40.5 15.2828V15.2758ZM22.5 0.25C23.6935 0.25 24.8381 0.724106 25.682 1.56802C26.5259 2.41193 27 3.55653 27 4.75C27 5.94347 26.5259 7.08807 25.682 7.93198C24.8381 8.77589 23.6935 9.25 22.5 9.25C21.3065 9.25 20.1619 8.77589 19.318 7.93198C18.4741 7.08807 18 5.94347 18 4.75C18 3.55653 18.4741 2.41193 19.318 1.56802C20.1619 0.724106 21.3065 0.25 22.5 0.25ZM16.875 19.375C16.875 20.5141 17.2969 21.5547 18 22.3492V16.4008C17.2969 17.1953 16.875 18.2359 16.875 19.375ZM27 16.4008V22.3562C27.7031 21.5617 28.125 20.5211 28.125 19.382C28.125 18.243 27.7031 17.1953 27 16.4078V16.4008ZM31.5 19.375C31.5 22.518 29.6578 25.225 27 26.4906V29.5C27 30.7445 25.9945 31.75 24.75 31.75H20.25C19.0055 31.75 18 30.7445 18 29.5V26.4906C15.3422 25.225 13.5 22.518 13.5 19.375C13.5 15.0227 17.0227 11.5 21.375 11.5H23.625C27.9773 11.5 31.5 15.0227 31.5 19.375Z" fill="#00CCFF"/>
</svg>
