<svg width="35" height="35" viewBox="0 0 35 35" fill="none" xmlns="http://www.w3.org/2000/svg">
<g filter="url(#filter0_dd_158_569)">
<path fill-rule="evenodd" clip-rule="evenodd" d="M11.5 6C11.5 4.4087 12.1321 2.88258 13.2574 1.75736C14.3826 0.632141 15.9087 0 17.5 0C19.0913 0 20.6174 0.632141 21.7426 1.75736C22.8679 2.88258 23.5 4.4087 23.5 6C23.5 7.5913 22.8679 9.11742 21.7426 10.2426C20.6174 11.3679 19.0913 12 17.5 12C15.9087 12 14.3826 11.3679 13.2574 10.2426C12.1321 9.11742 11.5 7.5913 11.5 6ZM11.5 15C9.51088 15 7.60322 15.7902 6.1967 17.1967C4.79018 18.6032 4 20.5109 4 22.5C4 23.6935 4.47411 24.8381 5.31802 25.682C6.16193 26.5259 7.30653 27 8.5 27H26.5C27.6935 27 28.8381 26.5259 29.682 25.682C30.5259 24.8381 31 23.6935 31 22.5C31 20.5109 30.2098 18.6032 28.8033 17.1967C27.3968 15.7902 25.4891 15 23.5 15H11.5Z" fill="white"/>
</g>
<defs>
<filter id="filter0_dd_158_569" x="0" y="0" width="35" height="35" filterUnits="userSpaceOnUse" color-interpolation-filters="sRGB">
<feFlood flood-opacity="0" result="BackgroundImageFix"/>
<feColorMatrix in="SourceAlpha" type="matrix" values="0 0 0 0 0 0 0 0 0 0 0 0 0 0 0 0 0 0 127 0" result="hardAlpha"/>
<feOffset dy="4"/>
<feGaussianBlur stdDeviation="2"/>
<feComposite in2="hardAlpha" operator="out"/>
<feColorMatrix type="matrix" values="0 0 0 0 0 0 0 0 0 0 0 0 0 0 0 0 0 0 0.25 0"/>
<feBlend mode="normal" in2="BackgroundImageFix" result="effect1_dropShadow_158_569"/>
<feColorMatrix in="SourceAlpha" type="matrix" values="0 0 0 0 0 0 0 0 0 0 0 0 0 0 0 0 0 0 127 0" result="hardAlpha"/>
<feOffset dy="4"/>
<feGaussianBlur stdDeviation="2"/>
<feComposite in2="hardAlpha" operator="out"/>
<feColorMatrix type="matrix" values="0 0 0 0 0 0 0 0 0 0 0 0 0 0 0 0 0 0 0.25 0"/>
<feBlend mode="normal" in2="effect1_dropShadow_158_569" result="effect2_dropShadow_158_569"/>
<feBlend mode="normal" in="SourceGraphic" in2="effect2_dropShadow_158_569" result="shape"/>
</filter>
</defs>
</svg>
