<svg width="19" height="19" viewBox="0 0 19 19" fill="none" xmlns="http://www.w3.org/2000/svg">
<path d="M9.59499 10.1173C9.53957 10.1094 9.46832 10.1094 9.40499 10.1173C8.01165 10.0698 6.90332 8.9298 6.90332 7.52855C6.90332 6.09563 8.05915 4.93188 9.49999 4.93188C10.9329 4.93188 12.0967 6.09563 12.0967 7.52855C12.0887 8.9298 10.9883 10.0698 9.59499 10.1173Z" stroke="#00CCFF" stroke-width="1.1875" stroke-linecap="round" stroke-linejoin="round"/>
<path d="M14.8357 15.3424C13.4266 16.6328 11.5582 17.4165 9.4999 17.4165C7.44156 17.4165 5.57323 16.6328 4.16406 15.3424C4.24323 14.5982 4.71823 13.8699 5.56531 13.2999C7.73448 11.859 11.2811 11.859 13.4345 13.2999C14.2816 13.8699 14.7566 14.5982 14.8357 15.3424Z" stroke="#00CCFF" stroke-width="1.1875" stroke-linecap="round" stroke-linejoin="round"/>
<path d="M9.49992 17.4166C13.8722 17.4166 17.4166 13.8722 17.4166 9.49992C17.4166 5.12766 13.8722 1.58325 9.49992 1.58325C5.12766 1.58325 1.58325 5.12766 1.58325 9.49992C1.58325 13.8722 5.12766 17.4166 9.49992 17.4166Z" stroke="#00CCFF" stroke-width="1.1875" stroke-linecap="round" stroke-linejoin="round"/>
</svg>
