<svg width="30" height="34" viewBox="0 0 30 34" fill="none" xmlns="http://www.w3.org/2000/svg">
<path d="M3.33333 33.6667C2.41667 33.6667 1.63222 33.3406 0.98 32.6884C0.327778 32.0362 0.00111111 31.2512 0 30.3334V7.00004C0 6.08337 0.326667 5.29893 0.98 4.64671C1.63333 3.99448 2.41778 3.66782 3.33333 3.66671H5V0.333374H8.33333V3.66671H21.6667V0.333374H25V3.66671H26.6667C27.5833 3.66671 28.3683 3.99337 29.0217 4.64671C29.675 5.30004 30.0011 6.08449 30 7.00004V30.3334C30 31.25 29.6739 32.035 29.0217 32.6884C28.3694 33.3417 27.5844 33.6678 26.6667 33.6667H3.33333ZM3.33333 30.3334H26.6667V7.00004H3.33333V30.3334ZM10 30.3334V27.3334L7 23.8334C6.69444 23.5278 6.42333 23.1112 6.18667 22.5834C5.95 22.0556 5.83222 21.4445 5.83333 20.75C5.83333 20.3889 5.86833 20.0345 5.93833 19.6867C6.00833 19.3389 6.12611 18.9989 6.29167 18.6667C6.15278 18.3612 6.04167 18.035 5.95833 17.6884C5.875 17.3417 5.83333 16.9734 5.83333 16.5834C5.83333 15.8889 5.95167 15.2778 6.18833 14.75C6.425 14.2223 6.69556 13.8056 7 13.5L10 10V7.00004H12.5V10.4584C12.5 10.5973 12.4028 10.8612 12.2083 11.25L8.875 15.1667C8.68056 15.3889 8.54167 15.6184 8.45833 15.855C8.375 16.0917 8.33333 16.3345 8.33333 16.5834C8.33333 17.1389 8.51389 17.6184 8.875 18.0217C9.23611 18.425 9.69444 18.6262 10.25 18.625C10.5 18.625 10.7361 18.5834 10.9583 18.5C11.1806 18.4167 11.375 18.2778 11.5417 18.0834C12.0139 17.6112 12.5483 17.25 13.145 17C13.7417 16.75 14.36 16.625 15 16.625C15.6389 16.625 16.2572 16.75 16.855 17C17.4528 17.25 17.9872 17.6112 18.4583 18.0834C18.6528 18.2778 18.8611 18.4167 19.0833 18.5C19.3056 18.5834 19.5278 18.625 19.75 18.625C20.3056 18.625 20.7639 18.4239 21.125 18.0217C21.4861 17.6195 21.6667 17.1539 21.6667 16.625C21.6667 16.375 21.6178 16.1323 21.52 15.8967C21.4222 15.6612 21.2906 15.4317 21.125 15.2084L17.7917 11.25C17.6806 11.1389 17.6044 11.0139 17.5633 10.875C17.5222 10.7362 17.5011 10.5973 17.5 10.4584V7.00004H20V10L23.0417 13.5834C23.4306 14.0278 23.7156 14.5073 23.8967 15.0217C24.0778 15.5362 24.1678 16.0706 24.1667 16.625C24.1667 16.9862 24.1178 17.3406 24.02 17.6884C23.9222 18.0362 23.8044 18.3623 23.6667 18.6667C23.8333 19 23.9583 19.3406 24.0417 19.6884C24.125 20.0362 24.1667 20.39 24.1667 20.75C24.1667 21.4445 24.0483 22.0556 23.8117 22.5834C23.575 23.1112 23.3044 23.5278 23 23.8334L20 27.3334V30.3334H17.5V26.875C17.5 26.7084 17.5972 26.4445 17.7917 26.0834L21.125 22.1667C21.3194 21.9445 21.4583 21.7084 21.5417 21.4584C21.625 21.2084 21.6667 20.9584 21.6667 20.7084C21.3611 20.8473 21.0556 20.9517 20.75 21.0217C20.4444 21.0917 20.125 21.1262 19.7917 21.125C19.2361 21.125 18.6806 21.0139 18.125 20.7917C17.5694 20.5695 17.0833 20.2362 16.6667 19.7917C16.4722 19.5695 16.2294 19.4028 15.9383 19.2917C15.6472 19.1806 15.3344 19.125 15 19.125C14.6944 19.125 14.3961 19.1806 14.105 19.2917C13.8139 19.4028 13.5567 19.5695 13.3333 19.7917C12.9167 20.2362 12.4378 20.5695 11.8967 20.7917C11.3556 21.0139 10.8067 21.125 10.25 21.125C9.91667 21.125 9.59 21.0906 9.27 21.0217C8.95 20.9528 8.63778 20.8478 8.33333 20.7067C8.33333 20.9567 8.375 21.2067 8.45833 21.4567C8.54167 21.7067 8.68056 21.9428 8.875 22.165L12.2083 26.0817C12.2917 26.2206 12.3611 26.3528 12.4167 26.4784C12.4722 26.6039 12.5 26.7356 12.5 26.8734V30.3334H10Z" fill="#00CCFF"/>
</svg>
