<svg width="28" height="27" viewBox="0 0 28 27" fill="none" xmlns="http://www.w3.org/2000/svg">
<path d="M9.56113 8.5473L12.9391 1.66308C13.0375 1.46385 13.1887 1.29628 13.3759 1.17916C13.563 1.06204 13.7788 1 13.9988 1C14.2189 1 14.4346 1.06204 14.6218 1.17916C14.809 1.29628 14.9602 1.46385 15.0585 1.66308L18.4365 8.5473L25.9883 9.65783C26.2061 9.6884 26.411 9.78032 26.5797 9.92311C26.7484 10.0659 26.874 10.2538 26.9422 10.4654C27.0104 10.6769 27.0184 10.9036 26.9654 11.1196C26.9124 11.3356 26.8004 11.5321 26.6423 11.6868L21.1787 17.0421L22.4685 24.6079C22.6337 25.5789 21.6195 26.3184 20.7522 25.8605L13.9988 22.2868L7.24412 25.8605C6.37816 26.3197 5.36398 25.5789 5.52911 24.6065L6.81894 17.0407L1.35536 11.6855C1.19802 11.5307 1.08673 11.3344 1.03416 11.1188C0.981587 10.9032 0.989833 10.677 1.05796 10.4659C1.12609 10.2548 1.25137 10.0673 1.41956 9.92472C1.58774 9.7821 1.79209 9.69009 2.00938 9.65915L9.56113 8.5473Z" fill="#00CCFF" stroke="#00CCFF" stroke-width="1.5" stroke-linecap="round" stroke-linejoin="round"/>
</svg>
