<svg width="48" height="48" viewBox="0 0 48 48" fill="none" xmlns="http://www.w3.org/2000/svg">
<circle cx="24" cy="24" r="24" fill="#2F579A"/>
<path d="M11 32.95C11 35.245 12.755 37 15.05 37H33.95C36.245 37 38 35.245 38 32.95V22.15H11V32.95ZM33.95 12.7H31.25V11.35C31.25 10.54 30.71 10 29.9 10C29.09 10 28.55 10.54 28.55 11.35V12.7H20.45V11.35C20.45 10.54 19.91 10 19.1 10C18.29 10 17.75 10.54 17.75 11.35V12.7H15.05C12.755 12.7 11 14.455 11 16.75V19.45H38V16.75C38 14.455 36.245 12.7 33.95 12.7Z" fill="#00CCFF"/>
</svg>
