<svg width="23" height="21" viewBox="0 0 23 21" fill="none" xmlns="http://www.w3.org/2000/svg">
<path fill-rule="evenodd" clip-rule="evenodd" d="M22.0649 2.40693C22.383 0.856007 20.8597 -0.432846 19.3829 0.13775L1.28019 7.13198C-0.369021 7.76918 -0.442506 10.0754 1.16279 10.8162L5.10505 12.6358L6.98044 19.1996C7.07785 19.5405 7.3484 19.8045 7.69165 19.8935C8.0349 19.9824 8.39959 19.8831 8.65032 19.6323L11.5392 16.7435L15.5859 19.7785C16.7606 20.6595 18.4524 20.0178 18.7474 18.5794L22.0649 2.40693ZM2.00153 8.99897L20.1042 2.00474L16.7868 18.1773L12.0457 14.6215C11.6473 14.3226 11.0898 14.3623 10.7377 14.7144L9.50033 15.9518L9.87211 13.9071L17.1566 6.62262C17.5112 6.26811 17.5486 5.70597 17.2443 5.30754C16.94 4.9091 16.3879 4.79735 15.9525 5.04609L5.89238 10.7947L2.00153 8.99897ZM7.119 12.399L7.72583 14.523L7.95882 13.2415C7.99524 13.0413 8.09186 12.8568 8.2358 12.7129L10.4573 10.4915L7.119 12.399Z" fill="white"/>
</svg>
