<svg width="230" height="230" viewBox="0 0 230 230" fill="none" xmlns="http://www.w3.org/2000/svg">
<circle cx="115" cy="115" r="115" fill="#2F579A" fill-opacity="0.7"/>
<g clip-path="url(#clip0_840_1308)">
<path d="M115 70.8333C139.393 70.8333 159.167 90.6068 159.167 115C159.167 139.393 139.393 159.167 115 159.167C90.6067 159.167 70.8333 139.393 70.8333 115C70.8333 90.6068 90.6067 70.8333 115 70.8333ZM115 88.5C113.829 88.5 112.705 88.9653 111.877 89.7936C111.049 90.6219 110.583 91.7453 110.583 92.9167V115C110.584 116.171 111.049 117.295 111.877 118.123L125.127 131.373C125.96 132.177 127.076 132.622 128.234 132.612C129.392 132.602 130.5 132.138 131.319 131.319C132.138 130.5 132.602 129.392 132.612 128.234C132.622 127.076 132.177 125.96 131.373 125.127L119.417 113.172V92.9167C119.417 91.7453 118.951 90.6219 118.123 89.7936C117.295 88.9653 116.171 88.5 115 88.5Z" fill="#00CCFF"/>
</g>
<defs>
<clipPath id="clip0_840_1308">
<rect width="106" height="106" fill="white" transform="translate(62 62)"/>
</clipPath>
</defs>
</svg>
