<svg width="183" height="101" viewBox="0 0 183 101" fill="none" xmlns="http://www.w3.org/2000/svg">
<path d="M28.0001 78.0866C36.3335 46.7533 54.5001 -12.0134 60.5001 3.58663C66.5001 19.1866 57.3335 59.7533 52.0001 78.0866C55.0001 58.0867 54.4001 17.5869 28.0001 15.5869C1.60015 13.5869 10.3335 26.0869 18.0001 32.5869C24.8334 46.9202 46.8 72.8869 80 62.0869C113.2 51.2869 104.5 44.5869 96 42.5869L109.5 62.0869V42.5869M125.5 42.5869H109.5M109.5 42.5869L125.5 62.0869L135 42.5869H157L140 67.0869C163.5 68.7536 202 76.1869 168 92.5869C134 108.987 89.5 94.4202 71.5 85.0869C54.1667 75.4203 15.8 58.2871 1 67.0869" stroke="#00CCFF" stroke-width="2"/>
</svg>
