<svg width="39" height="39" viewBox="0 0 39 39" fill="none" xmlns="http://www.w3.org/2000/svg">
<path d="M24.1458 38.9991C25.5841 38.9991 26.6215 37.9363 26.6215 36.5127V2.61427C26.6215 1.19061 25.5841 0 24.1024 0C23.0659 0 22.3888 0.510521 21.2466 1.53066L11.3005 10.3927C11.1741 10.5196 10.9836 10.584 10.7714 10.584H4.48732C1.48163 10.584 0 12.0929 0 15.302V23.7614C0 26.9715 1.48163 28.4795 4.48732 28.4795H10.7714C10.9836 28.4795 11.1732 28.5429 11.3005 28.6708L21.2466 37.619C22.2831 38.553 23.1084 39 24.1449 39M22.917 34.5159C22.8113 34.5159 22.684 34.4525 22.5576 34.3246L13.183 25.8443C12.6756 25.3764 12.2521 25.2703 11.6806 25.2703H4.63359C3.80836 25.2703 3.40567 24.8877 3.40567 24.0371V15.0264C3.40567 14.1976 3.80836 13.794 4.63359 13.794H11.6806C12.2521 13.794 12.6539 13.7088 13.183 13.22L22.5576 4.6763C22.6632 4.59197 22.7906 4.50673 22.917 4.50673C23.1075 4.50673 23.2131 4.63368 23.2131 4.80416V34.1968C23.2131 34.3881 23.1075 34.5159 22.917 34.5159ZM33.9845 28.9265C34.7041 29.4361 35.7406 29.2656 36.3546 28.4368C38.005 26.2061 39 22.9326 39 19.5957C39 16.2587 37.9843 13.0079 36.3546 10.7336C35.7406 9.90483 34.7249 9.73436 33.9845 10.244C33.0536 10.8606 32.948 11.9451 33.6251 12.88C34.8522 14.5376 35.5934 17.0666 35.5934 19.5957C35.5934 22.1256 34.8097 24.6546 33.6035 26.3331C32.9687 27.2471 33.0744 28.2881 33.9845 28.9265Z" fill="white"/>
</svg>
