<svg width="19" height="19" viewBox="0 0 19 19" fill="none" xmlns="http://www.w3.org/2000/svg">
<path d="M12.1836 4.1245L13.2998 6.357C13.4502 6.66575 13.854 6.95866 14.1944 7.02199L16.2132 7.35449C17.5036 7.56824 17.8044 8.50241 16.8782 9.43658L15.3027 11.012C15.0415 11.2732 14.8911 11.7878 14.9782 12.1599L15.4294 14.1074C15.7857 15.6433 14.9623 16.2449 13.6086 15.4374L11.7165 14.3132C11.3761 14.1074 10.8061 14.1074 10.4657 14.3132L8.57358 15.4374C7.21983 16.237 6.3965 15.6433 6.75275 14.1074L7.20401 12.1599C7.29109 11.7957 7.14067 11.2812 6.87942 11.012L5.30402 9.43658C4.37777 8.51033 4.6786 7.57616 5.96901 7.35449L7.98775 7.02199C8.32817 6.96658 8.73192 6.66575 8.88234 6.357L9.99859 4.1245C10.5923 2.91325 11.574 2.91325 12.1836 4.1245Z" stroke="#00CCFF" stroke-width="1.1875" stroke-linecap="round" stroke-linejoin="round"/>
<path d="M6.33325 3.95825H1.58325" stroke="#00CCFF" stroke-width="1.1875" stroke-linecap="round" stroke-linejoin="round"/>
<path d="M3.95825 15.0417H1.58325" stroke="#00CCFF" stroke-width="1.1875" stroke-linecap="round" stroke-linejoin="round"/>
<path d="M2.37492 9.5H1.58325" stroke="#00CCFF" stroke-width="1.1875" stroke-linecap="round" stroke-linejoin="round"/>
</svg>
