<svg width="17" height="12" viewBox="0 0 17 12" fill="none" xmlns="http://www.w3.org/2000/svg">
<path d="M2.37655 0C1.74625 0 1.14176 0.241701 0.696075 0.671931C0.250386 1.10216 0 1.68568 0 2.29412V9.70588C0 10.3143 0.250386 10.8978 0.696075 11.3281C1.14176 11.7583 1.74625 12 2.37655 12H9.32338C9.95368 12 10.5582 11.7583 11.0039 11.3281C11.4495 10.8978 11.6999 10.3143 11.6999 9.70588V2.29412C11.6999 1.68568 11.4495 1.10216 11.0039 0.671931C10.5582 0.241701 9.95368 0 9.32338 0H2.37655ZM15.4461 10.6892L12.7968 8.18329V3.88235L15.4381 1.32141C16.0135 0.763765 17 1.15694 17 1.944V10.0588C17 10.8409 16.0245 11.2362 15.4461 10.6892Z" fill="#00CCFF"/>
</svg>
