<svg width="54" height="54" viewBox="0 0 54 54" fill="none" xmlns="http://www.w3.org/2000/svg">
<path d="M10.0723 10.9688H43.8223C44.2165 10.9686 44.6104 10.9937 45.0014 11.0437C44.8689 10.1132 44.5492 9.21925 44.0618 8.41563C43.5744 7.61202 42.9294 6.91543 42.1655 6.36787C41.4016 5.8203 40.5347 5.43311 39.6171 5.22962C38.6996 5.02613 37.7503 5.01057 36.8265 5.18387L9.07031 9.92258H9.03867C7.29641 10.2558 5.74706 11.2415 4.70707 12.6785C6.27391 11.564 8.14951 10.9663 10.0723 10.9688ZM43.8223 13.5001H10.0723C8.28265 13.502 6.5669 14.2138 5.30145 15.4793C4.03601 16.7447 3.32422 18.4605 3.32227 20.2501V40.5001C3.32422 42.2897 4.03601 44.0054 5.30145 45.2709C6.5669 46.5363 8.28265 47.2481 10.0723 47.2501H43.8223C45.6119 47.2481 47.3276 46.5363 48.5931 45.2709C49.8585 44.0054 50.5703 42.2897 50.5723 40.5001V20.2501C50.5703 18.4605 49.8585 16.7447 48.5931 15.4793C47.3276 14.2138 45.6119 13.502 43.8223 13.5001ZM38.8125 33.7501C38.145 33.7501 37.4925 33.5521 36.9375 33.1813C36.3824 32.8104 35.9499 32.2833 35.6944 31.6666C35.439 31.0499 35.3721 30.3713 35.5023 29.7167C35.6326 29.062 35.954 28.4606 36.426 27.9886C36.898 27.5166 37.4994 27.1952 38.1541 27.0649C38.8088 26.9347 39.4874 27.0015 40.1041 27.257C40.7208 27.5124 41.2479 27.945 41.6187 28.5C41.9896 29.055 42.1875 29.7076 42.1875 30.3751C42.1875 31.2702 41.8319 32.1286 41.199 32.7616C40.566 33.3945 39.7076 33.7501 38.8125 33.7501Z" fill="#F8FAFF"/>
<path d="M3.375 27.3691V16.875C3.375 14.5895 4.64062 10.7578 9.0334 9.92777C12.7617 9.22852 16.4531 9.22852 16.4531 9.22852C16.4531 9.22852 18.8789 10.916 16.875 10.916C14.8711 10.916 14.9238 13.5 16.875 13.5C18.8262 13.5 16.875 15.9785 16.875 15.9785L9.01758 24.8906L3.375 27.3691Z" fill="#F8FAFF"/>
</svg>
